<svg width="384" height="320" viewBox="0 0 384 320" fill="none" xmlns="http://www.w3.org/2000/svg">
<g clip-path="url(#clip0_2287_70107)">
<path d="M261.539 218.702C261.539 220.184 261.997 296.924 261.962 298.11H273.251C273.251 267.959 273.251 216.77 273.251 186.631C273.228 185.16 273.086 183.694 272.828 182.246C271.499 173.618 270.135 165.013 268.794 156.409C268.512 154.667 268.418 153.268 270.593 152.32C271.967 151.744 273.11 150.723 273.841 149.417C274.572 148.111 274.848 146.597 274.627 145.114C274.527 143.566 273.966 142.084 273.018 140.862C272.07 139.64 270.778 138.735 269.312 138.264C261.515 135.455 253.731 132.61 245.875 129.967C243.524 129.161 242.747 127.881 242.747 125.452C242.747 118.341 242.548 111.23 242.324 104.047C242.218 100.61 242.077 97.1733 241.913 93.7007C241.816 91.6034 240.921 89.6243 239.415 88.1743C237.908 86.7243 235.905 85.9148 233.822 85.9141H233.528C232.321 85.9431 231.133 86.2308 230.044 86.758C228.955 87.2852 227.991 88.0398 227.213 88.9718C226.449 89.837 225.12 90.0267 223.415 90.003C221.263 90.003 184.527 90.003 145.416 90.003C106.304 90.003 69.58 90.003 67.428 90.003C65.7229 90.003 64.3941 89.837 63.6297 88.9718C62.8526 88.0398 61.8877 87.2852 60.7989 86.758C59.7102 86.2308 58.5225 85.9431 57.315 85.9141H57.0093C54.9273 85.915 52.9258 86.7248 51.4211 88.1751C49.9165 89.6254 49.0244 91.6045 48.9306 93.7007C48.766 97.1733 48.6249 100.61 48.519 104.047C48.2956 111.159 48.1075 118.27 48.0957 125.452C48.0957 127.822 47.3666 129.161 44.9677 129.967C37.1125 132.587 29.3279 135.431 21.5314 138.264C20.0632 138.732 18.7698 139.637 17.8211 140.859C16.8725 142.082 16.313 143.565 16.2162 145.114C15.9926 146.597 16.2684 148.112 16.9995 149.418C17.7306 150.725 18.8749 151.746 20.2497 152.32C22.4252 153.268 22.3193 154.69 22.0489 156.409C20.7083 165.025 19.3325 173.63 18.0037 182.246C17.7549 183.695 17.6173 185.161 17.5921 186.631C17.5921 216.77 17.5921 267.959 17.5921 298.11H28.881C28.881 296.924 29.2926 220.184 29.2926 218.702H261.539ZM243.747 145.138C247.369 146.11 254.989 147.887 256.13 152.462C257.423 157.641 258.023 173.796 259.058 179.176L243.77 168.142L243.747 145.138ZM219.793 108.041H227.59V168.201H219.793V108.041ZM199.955 107.959H208.634V168.071H199.955V107.959ZM180.482 108.03H188.925V168.178H180.482V108.03ZM141.182 108.03H149.673V168.107H141.241L141.182 108.03ZM169.146 107.935V168.107H160.914V107.935H169.146ZM121.65 107.935H129.882V168.107H121.65V107.935ZM101.883 108.03H110.326V168.178H101.883V108.03ZM82.1742 107.959H90.8761V168.071H82.1859L82.1742 107.959ZM63.2064 108.041H71.0146V168.201H63.2182L63.2064 108.041ZM34.6783 152.462C35.8543 147.887 43.439 146.11 47.0609 145.138V168.142L31.7738 179.164C32.7851 173.807 33.3848 157.63 34.6783 152.462ZM261.386 200H31.762V197.132H261.445L261.386 200Z" fill="#6EB3F0"/>
<path d="M159.164 200H167.49C167.49 200 176.415 210.489 179.155 218.56L159.246 218.702L159.164 200Z" fill="#9CCEF7"/>
<path d="M234.268 218.562L234.092 279.351L245.698 279.398V218.705L234.268 218.562Z" fill="#4094E3"/>
<path d="M45.1094 218.705V279.398L56.704 279.351L56.5512 218.562L45.1094 218.705Z" fill="#4094E3"/>
<path d="M71.0141 168.204H63.2177V108.044H71.0141V168.204ZM90.8756 168.074H82.1855V107.961H90.8756V168.074ZM110.349 168.181H101.906V108.033H110.349V168.181ZM129.964 168.11H121.732V107.938H129.964V168.11ZM149.649 168.11H141.217V108.033H149.672L149.649 168.11ZM169.181 168.11H160.949V107.938H169.181V168.11ZM188.96 168.181H180.481V108.033H188.925L188.96 168.181ZM208.657 168.074H199.978V107.961H208.657V168.074ZM227.624 168.204H219.828V108.044H227.624V168.204ZM242.759 125.538C242.759 118.427 242.559 111.316 242.335 104.133C242.23 100.696 242.088 97.2593 241.924 93.7867C241.827 91.6894 240.933 89.7102 239.426 88.2602C237.919 86.8102 235.917 86.0008 233.833 86H233.539C232.33 86.0296 231.141 86.3175 230.051 86.8446C228.96 87.3717 227.993 88.1261 227.213 89.0578C226.449 89.923 225.132 90.1126 223.426 90.0889C221.274 90.0889 184.538 90.0889 145.427 90.0889C106.316 90.0889 69.5795 90.0889 67.4393 90.0889C65.7342 90.0889 64.4054 89.923 63.6411 89.0578C62.8612 88.1261 61.894 87.3717 60.8034 86.8446C59.7128 86.3175 58.5237 86.0296 57.3146 86H57.0206C54.9374 86.0008 52.9346 86.8102 51.428 88.2602C49.9215 89.7102 49.0269 91.6894 48.9302 93.7867C48.7773 97.2593 48.6244 100.696 48.5304 104.133C48.3069 111.244 48.1188 118.356 48.107 125.538C49.4238 125.511 50.7328 125.746 51.9593 126.23C53.1858 126.714 54.3056 127.436 55.2547 128.356C56.2038 129.277 56.9636 130.377 57.4906 131.593C58.0176 132.81 58.3014 134.119 58.3259 135.446V135.529L58.3964 141.964L47.084 145.212V168.216L31.7969 179.239V197.194H259.034V179.179L243.747 168.145V145.141L232.951 141.585V135.766C232.941 133.108 233.96 130.551 235.792 128.638C237.623 126.726 240.123 125.609 242.759 125.526V125.538Z" fill="#4094E3"/>
<path d="M28.859 299.127H17.5701C17.3018 299.127 17.0446 299.02 16.855 298.829C16.6653 298.637 16.5588 298.378 16.5588 298.108V186.629C16.5618 186.36 16.6693 186.103 16.8583 185.912C17.0473 185.722 17.3028 185.613 17.5701 185.61C17.8383 185.61 18.0955 185.718 18.2852 185.909C18.4748 186.1 18.5814 186.359 18.5814 186.629V297.089H27.8477C27.8477 295.489 27.9182 292.644 27.9182 292.644H29.9408C29.9408 292.644 29.8468 297.669 29.8585 298.037C29.8649 298.308 29.7647 298.571 29.5798 298.769C29.3948 298.966 29.14 299.082 28.8708 299.092L28.859 299.127ZM30.1996 271.406H28.177C28.177 271.406 28.2475 227.103 28.2593 219.779H23.2498C22.9824 219.786 22.7231 219.686 22.5275 219.502C22.3318 219.318 22.2154 219.065 22.2032 218.795C22.1969 218.661 22.2173 218.527 22.2633 218.401C22.3092 218.275 22.3797 218.159 22.4707 218.061C22.5616 217.962 22.6712 217.883 22.7929 217.828C22.9145 217.773 23.0459 217.744 23.1792 217.741H80.4C80.5328 217.736 80.6653 217.757 80.7898 217.804C80.9143 217.851 81.0284 217.922 81.1256 218.014C81.2228 218.105 81.3012 218.215 81.3563 218.337C81.4113 218.459 81.442 218.59 81.4466 218.724C81.453 218.994 81.3545 219.255 81.172 219.452C80.9896 219.649 80.7378 219.767 80.4706 219.779H30.2819C30.2701 227.056 30.1996 271.406 30.1996 271.406ZM121.805 219.767H89.9838C89.8506 219.774 89.7175 219.753 89.5923 219.707C89.4671 219.66 89.3524 219.589 89.2548 219.498C89.1573 219.406 89.079 219.296 89.0244 219.173C88.9699 219.05 88.9403 218.918 88.9373 218.783C88.9308 218.514 89.0294 218.253 89.2118 218.055C89.3943 217.858 89.6461 217.741 89.9133 217.729H121.805C122.073 217.729 122.33 217.836 122.52 218.027C122.709 218.218 122.816 218.478 122.816 218.748C122.816 219.018 122.709 219.278 122.52 219.469C122.33 219.66 122.073 219.767 121.805 219.767ZM18.699 178.724H18.5461C18.4125 178.704 18.2843 178.657 18.1689 178.586C18.0536 178.516 17.9535 178.422 17.8746 178.312C17.7957 178.201 17.7396 178.076 17.7095 177.943C17.6794 177.811 17.6759 177.673 17.6994 177.539L18.0757 175.109C18.0955 174.975 18.142 174.846 18.2125 174.731C18.283 174.615 18.3759 174.515 18.4857 174.436C18.5956 174.357 18.72 174.302 18.8517 174.273C18.9833 174.244 19.1193 174.242 19.2516 174.268C19.3842 174.289 19.5111 174.337 19.6251 174.409C19.7391 174.48 19.8378 174.574 19.9155 174.684C19.9933 174.794 20.0484 174.919 20.0778 175.051C20.1071 175.183 20.1101 175.32 20.0866 175.453L19.7103 177.823C19.6838 178.074 19.5654 178.305 19.3782 178.472C19.191 178.639 18.9487 178.729 18.699 178.724ZM19.6397 172.739H19.4868C19.3532 172.719 19.225 172.672 19.1097 172.601C18.9944 172.53 18.8943 172.437 18.8154 172.326C18.7365 172.216 18.6803 172.091 18.6502 171.958C18.6201 171.825 18.6167 171.688 18.6402 171.554L20.992 156.229C21.0145 156.098 21.0631 155.972 21.1349 155.859C21.2068 155.747 21.3003 155.65 21.4101 155.575C21.5199 155.499 21.6435 155.447 21.7738 155.421C21.904 155.395 22.038 155.396 22.1679 155.423C22.4217 155.47 22.6483 155.612 22.8014 155.822C22.9544 156.031 23.0222 156.291 22.9911 156.549L20.6392 171.874C20.598 172.111 20.4754 172.327 20.2927 172.483C20.1101 172.639 19.879 172.725 19.6397 172.727V172.739ZM22.4855 153.029C20.5617 153.028 18.7142 152.271 17.3349 150.92C16.5744 150.174 15.9879 149.267 15.6178 148.265C15.2476 147.262 15.1031 146.19 15.1947 145.124C15.3029 143.365 15.9323 141.679 17.0015 140.285C18.0707 138.89 19.5304 137.851 21.1919 137.302L29.8938 134.161C30.0189 134.116 30.1516 134.096 30.2843 134.103C30.417 134.109 30.5471 134.142 30.6672 134.199C30.7873 134.257 30.8951 134.337 30.9843 134.436C31.0736 134.536 31.1426 134.651 31.1873 134.778C31.2321 134.904 31.2518 135.037 31.2453 135.171C31.2388 135.305 31.2063 135.436 31.1495 135.557C31.0927 135.678 31.0128 135.787 30.9144 135.877C30.816 135.967 30.7009 136.036 30.5759 136.081L21.874 139.222C20.5739 139.614 19.425 140.4 18.5835 141.473C17.742 142.546 17.2485 143.854 17.1702 145.219C17.0961 145.995 17.1948 146.777 17.4593 147.509C17.7238 148.241 18.1474 148.904 18.699 149.45C19.2665 150.013 19.952 150.44 20.7049 150.7C21.4579 150.961 22.2592 151.048 23.0499 150.955L24.0024 150.849L58.1044 140.917C58.2337 140.873 58.3704 140.855 58.5065 140.866C58.6426 140.877 58.7751 140.915 58.8961 140.979C59.0171 141.042 59.1241 141.13 59.2106 141.236C59.2971 141.343 59.3614 141.466 59.3995 141.598C59.4376 141.73 59.4488 141.868 59.4325 142.005C59.4161 142.141 59.3724 142.273 59.3041 142.392C59.2359 142.511 59.1444 142.615 59.0352 142.698C58.926 142.78 58.8014 142.84 58.6688 142.872L24.4375 152.887L23.2616 153.029C22.9835 153.047 22.7047 153.047 22.4267 153.029H22.4855Z" fill="#004487"/>
<path d="M31.7613 201.023C31.4931 201.023 31.2359 200.915 31.0462 200.724C30.8565 200.533 30.75 200.274 30.75 200.004V179.18C31.2321 176.596 31.5967 172.069 31.9965 167.162C32.4786 161.236 32.9843 155.132 33.7133 152.217C34.5012 149.029 38.5111 146.907 40.1927 146.149C40.4344 146.031 40.7127 146.015 40.9663 146.104C41.2199 146.192 41.4281 146.379 41.545 146.623C41.662 146.866 41.6781 147.147 41.5899 147.402C41.5017 147.658 41.3164 147.868 41.0747 147.986C38.7934 149.017 36.1946 150.795 35.7242 152.727C34.8843 157.56 34.3306 162.44 34.0661 167.34C33.6545 172.258 33.2783 176.892 32.7961 179.381V200.015C32.7977 200.15 32.7726 200.283 32.7224 200.407C32.6721 200.532 32.5977 200.645 32.5034 200.74C32.4092 200.835 32.2971 200.91 32.1737 200.96C32.0503 201.011 31.9181 201.036 31.7848 201.035L31.7613 201.023Z" fill="#004487"/>
<path d="M84.6421 198.148H65.9566C65.6884 198.148 65.4312 198.041 65.2415 197.849C65.0519 197.658 64.9453 197.399 64.9453 197.129C64.9453 196.858 65.0519 196.599 65.2415 196.408C65.4312 196.217 65.6884 196.109 65.9566 196.109H84.6421C84.9104 196.109 85.1676 196.217 85.3572 196.408C85.5469 196.599 85.6534 196.858 85.6534 197.129C85.6534 197.399 85.5469 197.658 85.3572 197.849C85.1676 198.041 84.9104 198.148 84.6421 198.148Z" fill="#004487"/>
<path d="M255.637 194.323C308.879 194.323 352.04 150.822 352.04 97.1615C352.04 43.5007 308.879 0 255.637 0C202.395 0 159.234 43.5007 159.234 97.1615C159.234 150.822 202.395 194.323 255.637 194.323Z" fill="#E0F2FF"/>
<path d="M294.937 41.0469H218.854C216.256 41.0469 214.15 43.1694 214.15 45.7876V148.543C214.15 151.161 216.256 153.284 218.854 153.284H294.937C297.535 153.284 299.64 151.161 299.64 148.543V45.7876C299.64 43.1694 297.535 41.0469 294.937 41.0469Z" fill="#9CCEF7"/>
<path d="M290.137 107.469H265.76V143.226H290.137V107.469Z" fill="#0559AD"/>
<path d="M290.139 52.0078H223.652V79.3382H290.139V52.0078Z" fill="white"/>
<path d="M278.944 144.245H223.675C223.407 144.245 223.15 144.138 222.96 143.947C222.771 143.756 222.664 143.496 222.664 143.226V90.7224C222.667 90.453 222.775 90.1955 222.964 90.0051C223.153 89.8146 223.408 89.7062 223.675 89.7031H290.162C290.43 89.7062 290.685 89.8146 290.874 90.0051C291.063 90.1955 291.171 90.453 291.174 90.7224V116.986C291.174 117.256 291.067 117.516 290.878 117.707C290.688 117.898 290.431 118.005 290.162 118.005C289.894 118.005 289.637 117.898 289.447 117.707C289.258 117.516 289.151 117.256 289.151 116.986V91.7416H224.663V142.219H278.944C279.212 142.219 279.47 142.326 279.659 142.517C279.849 142.708 279.955 142.968 279.955 143.238C279.955 143.508 279.849 143.768 279.659 143.959C279.47 144.15 279.212 144.257 278.944 144.257V144.245Z" fill="#0D2842"/>
<path d="M290.139 108.492H231.342C231.209 108.496 231.077 108.475 230.952 108.428C230.828 108.381 230.714 108.31 230.617 108.218C230.52 108.127 230.441 108.017 230.386 107.895C230.331 107.773 230.3 107.642 230.296 107.508C230.291 107.374 230.312 107.241 230.359 107.115C230.406 106.99 230.476 106.875 230.567 106.777C230.657 106.679 230.766 106.6 230.887 106.544C231.008 106.489 231.139 106.458 231.272 106.453H290.068C290.201 106.458 290.332 106.489 290.453 106.544C290.574 106.6 290.682 106.679 290.773 106.777C290.864 106.875 290.934 106.99 290.981 107.115C291.027 107.241 291.049 107.374 291.044 107.508C291.039 107.755 290.945 107.992 290.778 108.174C290.611 108.355 290.383 108.468 290.139 108.492Z" fill="#0D2842"/>
<path d="M265.76 126.39H259.88C259.612 126.39 259.355 126.283 259.165 126.092C258.976 125.9 258.869 125.641 258.869 125.371C258.869 125.1 258.976 124.841 259.165 124.65C259.355 124.459 259.612 124.352 259.88 124.352H265.76C266.028 124.352 266.286 124.459 266.475 124.65C266.665 124.841 266.771 125.1 266.771 125.371C266.771 125.641 266.665 125.9 266.475 126.092C266.286 126.283 266.028 126.39 265.76 126.39Z" fill="#0D2842"/>
<path d="M253.86 126.39H223.65C223.382 126.39 223.125 126.283 222.935 126.092C222.745 125.9 222.639 125.641 222.639 125.371C222.639 125.1 222.745 124.841 222.935 124.65C223.125 124.459 223.382 124.352 223.65 124.352H253.86C254.128 124.352 254.385 124.459 254.575 124.65C254.764 124.841 254.871 125.1 254.871 125.371C254.871 125.641 254.764 125.9 254.575 126.092C254.385 126.283 254.128 126.39 253.86 126.39Z" fill="#0D2842"/>
<path d="M265.757 144.252C265.489 144.252 265.232 144.144 265.042 143.953C264.853 143.762 264.746 143.503 264.746 143.232V95.3864C264.746 95.1161 264.853 94.8569 265.042 94.6657C265.232 94.4746 265.489 94.3672 265.757 94.3672C266.026 94.3672 266.283 94.4746 266.472 94.6657C266.662 94.8569 266.769 95.1161 266.769 95.3864V143.232C266.77 143.367 266.745 143.5 266.695 143.624C266.645 143.749 266.57 143.862 266.476 143.957C266.382 144.052 266.27 144.127 266.146 144.177C266.023 144.228 265.891 144.253 265.757 144.252Z" fill="#0D2842"/>
<path d="M244.205 144.245C243.936 144.245 243.679 144.138 243.49 143.947C243.3 143.756 243.193 143.496 243.193 143.226V90.7224C243.193 90.4521 243.3 90.1928 243.49 90.0017C243.679 89.8105 243.936 89.7031 244.205 89.7031C244.473 89.7031 244.73 89.8105 244.92 90.0017C245.109 90.1928 245.216 90.4521 245.216 90.7224V143.226C245.216 143.496 245.109 143.756 244.92 143.947C244.73 144.138 244.473 144.245 244.205 144.245Z" fill="#0D2842"/>
<path d="M283.942 122.918H271.971C271.839 122.929 271.706 122.914 271.579 122.873C271.453 122.832 271.336 122.766 271.236 122.678C271.135 122.591 271.052 122.485 270.993 122.365C270.933 122.245 270.898 122.115 270.889 121.982C270.87 121.713 270.957 121.448 271.131 121.243C271.305 121.039 271.552 120.912 271.818 120.891H283.942C284.21 120.882 284.471 120.98 284.668 121.165C284.864 121.349 284.979 121.605 284.989 121.875C284.998 122.145 284.901 122.408 284.718 122.606C284.534 122.804 284.281 122.92 284.013 122.93H283.942V122.918Z" fill="white"/>
<path d="M283.939 129.828H271.968C271.7 129.828 271.443 129.72 271.253 129.529C271.064 129.338 270.957 129.079 270.957 128.808C270.957 128.538 271.064 128.279 271.253 128.088C271.443 127.896 271.7 127.789 271.968 127.789H283.939C284.208 127.789 284.465 127.896 284.654 128.088C284.844 128.279 284.951 128.538 284.951 128.808C284.951 129.079 284.844 129.338 284.654 129.529C284.465 129.72 284.208 129.828 283.939 129.828Z" fill="white"/>
<path d="M340.126 199.806C364.363 199.806 384.012 180.003 384.012 155.575C384.012 131.147 364.363 111.344 340.126 111.344C315.889 111.344 296.24 131.147 296.24 155.575C296.24 180.003 315.889 199.806 340.126 199.806Z" fill="#FFD900"/>
<path d="M365.924 140.445H314.312V170.727H365.924V140.445Z" fill="white"/>
<path d="M336.139 178.215C340.243 178.215 343.571 174.862 343.571 170.725C343.571 166.588 340.243 163.234 336.139 163.234C332.034 163.234 328.707 166.588 328.707 170.725C328.707 174.862 332.034 178.215 336.139 178.215Z" fill="white"/>
<path d="M321.137 143.682C320.334 141.99 320.191 140.056 320.735 138.262C321.278 136.469 322.47 134.946 324.074 133.995C325.678 133.044 327.577 132.734 329.397 133.127C331.216 133.519 332.824 134.585 333.901 136.114C334.979 137.643 335.448 139.524 335.216 141.385C334.984 143.246 334.068 144.951 332.649 146.164C331.23 147.377 329.411 148.009 327.551 147.936C325.692 147.863 323.928 147.089 322.607 145.768" fill="white"/>
<path d="M327.837 148.954C326.733 148.958 325.639 148.743 324.617 148.32C323.596 147.897 322.668 147.274 321.887 146.488C321.692 146.301 321.578 146.044 321.572 145.773C321.565 145.502 321.666 145.239 321.851 145.042C322.037 144.846 322.292 144.732 322.561 144.725C322.83 144.718 323.091 144.82 323.286 145.007C324.423 146.143 325.942 146.808 327.542 146.87C329.143 146.932 330.708 146.387 331.929 145.342C333.149 144.298 333.937 142.83 334.136 141.228C334.335 139.627 333.931 138.008 333.003 136.693C332.076 135.377 330.692 134.46 329.126 134.122C327.56 133.785 325.926 134.051 324.546 134.869C323.165 135.688 322.14 136.998 321.671 138.541C321.203 140.085 321.326 141.749 322.016 143.205C322.074 143.326 322.108 143.457 322.116 143.591C322.123 143.725 322.105 143.859 322.061 143.985C322.018 144.112 321.949 144.228 321.861 144.329C321.773 144.429 321.665 144.51 321.546 144.568C321.302 144.682 321.024 144.696 320.771 144.605C320.518 144.514 320.31 144.326 320.193 144.082C319.4 142.417 319.166 140.536 319.526 138.724C319.885 136.912 320.82 135.268 322.188 134.038C323.556 132.808 325.283 132.059 327.11 131.905C328.937 131.75 330.764 132.199 332.316 133.182C333.868 134.166 335.061 135.631 335.715 137.357C336.369 139.083 336.448 140.977 335.942 142.752C335.435 144.528 334.369 146.089 332.905 147.202C331.441 148.314 329.658 148.916 327.825 148.918L327.837 148.954Z" fill="#0D2842"/>
<path d="M350.862 163.067C354.966 163.067 358.293 159.713 358.293 155.576C358.293 151.44 354.966 148.086 350.862 148.086C346.757 148.086 343.43 151.44 343.43 155.576C343.43 159.713 346.757 163.067 350.862 163.067Z" fill="white"/>
<path d="M350.861 164.098C349.189 164.098 347.554 163.598 346.164 162.662C344.773 161.725 343.69 160.394 343.05 158.837C342.41 157.28 342.242 155.567 342.569 153.914C342.895 152.261 343.7 150.742 344.883 149.551C346.065 148.359 347.572 147.547 349.212 147.218C350.852 146.89 352.552 147.058 354.097 147.703C355.642 148.348 356.962 149.441 357.891 150.842C358.82 152.243 359.316 153.891 359.316 155.576C359.316 157.836 358.425 160.004 356.84 161.602C355.254 163.2 353.104 164.098 350.861 164.098ZM350.861 149.105C349.589 149.105 348.344 149.486 347.286 150.198C346.228 150.911 345.404 151.925 344.917 153.11C344.431 154.295 344.304 155.599 344.553 156.857C344.802 158.115 345.416 159.27 346.317 160.176C347.218 161.083 348.365 161.699 349.614 161.948C350.862 162.197 352.156 162.067 353.331 161.574C354.506 161.082 355.51 160.249 356.215 159.181C356.921 158.113 357.296 156.859 357.294 155.576C357.29 153.859 356.611 152.213 355.405 151C354.199 149.786 352.565 149.105 350.861 149.105Z" fill="#0D2842"/>
<path d="M343.044 168.144C343.62 169.728 343.65 171.461 343.127 173.063C342.605 174.665 341.561 176.043 340.165 176.973C338.769 177.903 337.103 178.331 335.436 178.188C333.768 178.045 332.198 177.339 330.978 176.184C329.758 175.029 328.961 173.493 328.715 171.825C328.47 170.157 328.79 168.454 329.624 166.992C330.458 165.529 331.757 164.394 333.311 163.768C334.865 163.143 336.583 163.065 338.187 163.546" fill="white"/>
<path d="M336.068 179.238C333.829 179.238 331.681 178.341 330.098 176.746C328.515 175.15 327.625 172.985 327.625 170.728C327.625 168.472 328.515 166.307 330.098 164.711C331.681 163.115 333.829 162.219 336.068 162.219C336.865 162.222 337.657 162.342 338.42 162.574C338.549 162.607 338.669 162.666 338.775 162.747C338.881 162.828 338.969 162.929 339.035 163.045C339.101 163.162 339.143 163.29 339.158 163.423C339.174 163.556 339.163 163.69 339.126 163.819C339.092 163.949 339.032 164.071 338.951 164.177C338.869 164.284 338.767 164.373 338.651 164.439C338.535 164.506 338.407 164.548 338.274 164.563C338.142 164.579 338.007 164.568 337.879 164.53C336.499 164.119 335.021 164.19 333.685 164.731C332.35 165.271 331.234 166.25 330.518 167.509C329.803 168.768 329.529 170.233 329.742 171.667C329.955 173.102 330.642 174.423 331.692 175.415C332.741 176.408 334.092 177.015 335.526 177.138C336.961 177.261 338.394 176.893 339.595 176.093C340.796 175.294 341.694 174.109 342.145 172.731C342.595 171.353 342.571 169.863 342.077 168.5C342.018 168.374 341.986 168.236 341.982 168.097C341.978 167.957 342.002 167.818 342.054 167.688C342.106 167.558 342.183 167.441 342.282 167.343C342.38 167.244 342.498 167.168 342.627 167.117C342.757 167.067 342.895 167.043 343.033 167.049C343.172 167.055 343.308 167.089 343.433 167.15C343.558 167.211 343.669 167.297 343.759 167.402C343.85 167.508 343.918 167.632 343.959 167.765C344.743 169.882 344.66 172.227 343.73 174.283C342.799 176.338 341.097 177.938 338.996 178.728C338.057 179.067 337.066 179.24 336.068 179.238Z" fill="#0D2842"/>
<path d="M327.956 144.698C327.41 144.728 326.866 144.599 326.389 144.329C325.912 144.058 325.522 143.656 325.263 143.169C325.165 142.927 325.164 142.655 325.26 142.411C325.355 142.167 325.54 141.97 325.776 141.86C326.013 141.75 326.282 141.737 326.528 141.821C326.774 141.906 326.978 142.083 327.098 142.316C327.215 142.589 327.709 142.66 327.956 142.66C328.203 142.66 328.603 142.589 328.638 142.269C328.709 141.723 328.709 141.723 327.615 141.332C326.522 140.941 325.534 140.372 325.263 139.199C325.168 138.85 325.154 138.484 325.221 138.128C325.289 137.773 325.436 137.438 325.651 137.149C325.93 136.816 326.284 136.556 326.683 136.389C327.081 136.222 327.514 136.153 327.944 136.189C328.469 136.161 328.989 136.296 329.435 136.575C329.881 136.855 330.231 137.266 330.437 137.753C330.5 137.878 330.536 138.014 330.544 138.153C330.552 138.293 330.532 138.432 330.484 138.563C330.437 138.694 330.363 138.814 330.267 138.915C330.172 139.016 330.057 139.096 329.93 139.151C329.802 139.205 329.665 139.233 329.526 139.232C329.388 139.231 329.251 139.201 329.125 139.144C328.998 139.088 328.884 139.005 328.79 138.903C328.697 138.8 328.625 138.679 328.579 138.547C328.521 138.429 328.45 138.227 327.944 138.227C327.695 138.194 327.443 138.257 327.239 138.405C327.218 138.454 327.207 138.506 327.207 138.559C327.207 138.612 327.218 138.664 327.239 138.713C327.239 138.867 327.321 139.069 328.309 139.424C329.485 139.839 330.931 140.349 330.661 142.518C330.57 143.16 330.24 143.743 329.737 144.148C329.235 144.553 328.598 144.75 327.956 144.698Z" fill="#0D2842"/>
<path d="M327.934 138.229C327.801 138.229 327.669 138.202 327.547 138.151C327.424 138.1 327.313 138.025 327.219 137.93C327.125 137.835 327.05 137.723 326.999 137.599C326.949 137.476 326.922 137.343 326.922 137.209V136.024C326.918 135.89 326.939 135.757 326.986 135.631C327.033 135.506 327.103 135.391 327.194 135.293C327.284 135.195 327.393 135.116 327.514 135.061C327.635 135.005 327.766 134.974 327.898 134.969C328.031 134.965 328.164 134.986 328.288 135.033C328.413 135.08 328.527 135.151 328.624 135.243C328.721 135.334 328.799 135.444 328.855 135.566C328.91 135.688 328.94 135.819 328.945 135.953V137.257C328.93 137.518 328.817 137.763 328.63 137.944C328.442 138.124 328.193 138.226 327.934 138.229Z" fill="#0D2842"/>
<path d="M327.934 145.932C327.801 145.933 327.668 145.908 327.545 145.857C327.421 145.807 327.309 145.732 327.215 145.637C327.121 145.542 327.047 145.429 326.996 145.304C326.946 145.18 326.921 145.047 326.922 144.912V143.727C326.918 143.593 326.939 143.46 326.986 143.335C327.033 143.209 327.103 143.094 327.194 142.996C327.284 142.898 327.393 142.819 327.514 142.764C327.635 142.708 327.766 142.677 327.898 142.672C328.031 142.668 328.164 142.69 328.288 142.736C328.413 142.783 328.527 142.855 328.624 142.946C328.721 143.037 328.799 143.147 328.855 143.269C328.91 143.391 328.94 143.522 328.945 143.656V144.96C328.933 145.222 328.821 145.469 328.633 145.65C328.444 145.831 328.194 145.932 327.934 145.932Z" fill="#0D2842"/>
<path d="M320.406 141.461H313.127C312.859 141.47 312.598 141.372 312.402 141.188C312.206 141.003 312.09 140.748 312.081 140.477C312.071 140.207 312.169 139.944 312.352 139.746C312.535 139.548 312.789 139.432 313.057 139.422H320.465C320.598 139.418 320.73 139.44 320.855 139.486C320.979 139.533 321.093 139.605 321.191 139.696C321.288 139.787 321.366 139.897 321.421 140.019C321.476 140.141 321.507 140.272 321.512 140.406C321.516 140.54 321.495 140.674 321.448 140.799C321.402 140.924 321.331 141.039 321.24 141.137C321.15 141.235 321.041 141.314 320.92 141.37C320.799 141.425 320.668 141.456 320.536 141.461H320.406Z" fill="#0D2842"/>
<path d="M367.219 141.461H340.172C339.904 141.47 339.643 141.372 339.447 141.188C339.25 141.003 339.135 140.748 339.126 140.477C339.116 140.207 339.214 139.944 339.397 139.746C339.58 139.548 339.833 139.432 340.102 139.422H367.148C367.281 139.418 367.413 139.44 367.538 139.486C367.662 139.533 367.776 139.605 367.873 139.696C367.971 139.787 368.049 139.897 368.104 140.019C368.159 140.141 368.19 140.272 368.195 140.406C368.199 140.54 368.178 140.674 368.131 140.799C368.085 140.924 368.014 141.039 367.923 141.137C367.833 141.235 367.724 141.314 367.603 141.37C367.482 141.425 367.351 141.456 367.219 141.461Z" fill="#0D2842"/>
<path d="M350.98 159.847C350.434 159.875 349.891 159.746 349.414 159.475C348.937 159.204 348.547 158.803 348.287 158.318C348.219 158.197 348.177 158.064 348.162 157.926C348.147 157.788 348.161 157.649 348.201 157.516C348.242 157.384 348.309 157.261 348.398 157.155C348.487 157.05 348.597 156.964 348.72 156.902C348.843 156.841 348.978 156.806 349.115 156.799C349.253 156.791 349.39 156.813 349.519 156.861C349.648 156.909 349.766 156.983 349.865 157.079C349.965 157.174 350.044 157.29 350.098 157.417C350.227 157.69 350.709 157.761 350.956 157.761C351.203 157.761 351.603 157.69 351.65 157.358C351.709 156.824 351.709 156.824 350.615 156.433C349.522 156.042 348.534 155.473 348.264 154.3C348.167 153.949 348.151 153.581 348.219 153.223C348.286 152.866 348.434 152.528 348.652 152.238C348.934 151.91 349.288 151.653 349.686 151.489C350.084 151.324 350.515 151.256 350.945 151.29C351.47 151.258 351.992 151.392 352.438 151.672C352.885 151.952 353.234 152.365 353.438 152.854C353.512 153.096 353.495 153.358 353.388 153.588C353.282 153.818 353.094 153.999 352.862 154.097C352.629 154.195 352.369 154.202 352.132 154.116C351.895 154.031 351.698 153.86 351.58 153.636C351.58 153.518 351.45 153.328 350.945 153.328C350.697 153.296 350.447 153.355 350.239 153.494C350.198 153.597 350.198 153.711 350.239 153.814C350.239 153.956 350.333 154.17 351.321 154.525C352.309 154.881 353.943 155.45 353.673 157.619C353.588 158.265 353.262 158.854 352.762 159.268C352.262 159.682 351.625 159.888 350.98 159.847Z" fill="#0D2842"/>
<path d="M350.957 153.361C350.69 153.358 350.435 153.25 350.246 153.059C350.057 152.869 349.949 152.612 349.946 152.342V151.157C349.937 150.887 350.034 150.624 350.217 150.426C350.4 150.228 350.654 150.112 350.922 150.102C351.19 150.093 351.451 150.191 351.647 150.376C351.844 150.56 351.959 150.816 351.969 151.086V152.39C351.956 152.652 351.845 152.899 351.656 153.08C351.468 153.261 351.218 153.362 350.957 153.361Z" fill="#0D2842"/>
<path d="M350.957 161.082C350.689 161.079 350.434 160.97 350.245 160.78C350.056 160.589 349.948 160.332 349.945 160.063V158.877C349.982 158.642 350.099 158.428 350.276 158.27C350.453 158.113 350.679 158.023 350.915 158.016C351.15 158.009 351.381 158.085 351.567 158.232C351.753 158.378 351.882 158.586 351.933 158.818V160.122C351.918 160.376 351.81 160.615 351.629 160.793C351.449 160.97 351.209 161.073 350.957 161.082Z" fill="#0D2842"/>
<path d="M343.432 156.599H313.128C312.988 156.619 312.845 156.608 312.709 156.569C312.573 156.529 312.447 156.461 312.339 156.37C312.231 156.278 312.143 156.164 312.081 156.036C312.019 155.908 311.984 155.768 311.979 155.625C311.974 155.483 311.999 155.341 312.052 155.209C312.105 155.076 312.185 154.957 312.286 154.857C312.388 154.758 312.509 154.682 312.642 154.633C312.775 154.583 312.916 154.563 313.057 154.573H343.491C343.738 154.6 343.968 154.718 344.134 154.905C344.301 155.092 344.393 155.335 344.393 155.586C344.393 155.837 344.301 156.08 344.134 156.267C343.968 156.454 343.738 156.572 343.491 156.599H343.432Z" fill="#0D2842"/>
<path d="M367.218 156.599H362.515C362.375 156.619 362.232 156.608 362.096 156.569C361.96 156.529 361.834 156.461 361.726 156.37C361.617 156.278 361.529 156.164 361.467 156.036C361.405 155.908 361.371 155.768 361.366 155.625C361.361 155.483 361.386 155.341 361.439 155.209C361.491 155.076 361.571 154.957 361.673 154.857C361.775 154.758 361.896 154.682 362.029 154.633C362.161 154.583 362.303 154.563 362.444 154.573H367.148C367.281 154.566 367.414 154.587 367.539 154.633C367.665 154.679 367.779 154.75 367.877 154.842C367.974 154.934 368.053 155.044 368.107 155.167C368.162 155.29 368.191 155.422 368.194 155.556C368.199 155.69 368.178 155.822 368.131 155.947C368.084 156.072 368.013 156.186 367.923 156.283C367.832 156.38 367.723 156.458 367.602 156.512C367.481 156.567 367.351 156.596 367.218 156.599Z" fill="#0D2842"/>
<path d="M336.177 174.983C335.632 175.012 335.09 174.885 334.614 174.617C334.137 174.348 333.746 173.95 333.485 173.466C333.366 173.223 333.348 172.941 333.433 172.684C333.519 172.427 333.702 172.214 333.943 172.092C334.063 172.033 334.193 171.999 334.325 171.991C334.458 171.983 334.591 172.002 334.717 172.046C334.842 172.09 334.958 172.158 335.058 172.248C335.157 172.337 335.238 172.445 335.295 172.566C335.425 172.838 335.919 172.909 336.154 172.909C336.389 172.909 336.812 172.909 336.848 172.518C336.907 171.985 336.907 171.985 335.813 171.594C334.719 171.203 333.743 170.634 333.461 169.46C333.364 169.11 333.349 168.741 333.416 168.384C333.483 168.026 333.632 167.689 333.849 167.398C334.129 167.067 334.482 166.807 334.881 166.64C335.28 166.473 335.712 166.404 336.142 166.438C336.67 166.409 337.194 166.544 337.642 166.826C338.091 167.109 338.442 167.524 338.647 168.015C338.698 168.138 338.724 168.271 338.724 168.405C338.724 168.539 338.698 168.672 338.647 168.795C338.597 168.919 338.522 169.032 338.428 169.126C338.334 169.221 338.223 169.296 338.1 169.348C337.977 169.399 337.846 169.426 337.713 169.426C337.58 169.426 337.448 169.4 337.325 169.348C337.203 169.297 337.091 169.222 336.997 169.128C336.903 169.033 336.828 168.92 336.777 168.797C336.777 168.678 336.648 168.477 336.142 168.477C335.893 168.446 335.642 168.509 335.437 168.655C335.396 168.753 335.396 168.864 335.437 168.963C335.437 169.117 335.519 169.318 336.507 169.674C337.683 170.089 339.129 170.61 338.859 172.767C338.776 173.411 338.453 174 337.954 174.412C337.456 174.823 336.82 175.028 336.177 174.983Z" fill="#0D2842"/>
<path d="M336.152 168.513C335.885 168.51 335.629 168.401 335.44 168.211C335.251 168.02 335.144 167.763 335.141 167.494V166.308C335.141 166.038 335.247 165.779 335.437 165.588C335.626 165.396 335.884 165.289 336.152 165.289C336.42 165.289 336.677 165.396 336.867 165.588C337.057 165.779 337.163 166.038 337.163 166.308V167.494C337.163 167.627 337.137 167.76 337.086 167.884C337.035 168.007 336.961 168.12 336.867 168.214C336.773 168.309 336.662 168.384 336.539 168.435C336.416 168.486 336.285 168.513 336.152 168.513Z" fill="#0D2842"/>
<path d="M336.152 176.216C336.019 176.216 335.888 176.19 335.765 176.138C335.642 176.087 335.531 176.012 335.437 175.917C335.343 175.823 335.268 175.71 335.218 175.587C335.167 175.463 335.141 175.33 335.141 175.197V174.011C335.141 173.741 335.247 173.482 335.437 173.291C335.626 173.1 335.884 172.992 336.152 172.992C336.42 172.992 336.677 173.1 336.867 173.291C337.057 173.482 337.163 173.741 337.163 174.011V175.197C337.165 175.331 337.14 175.464 337.089 175.589C337.039 175.713 336.965 175.826 336.871 175.921C336.776 176.016 336.664 176.091 336.541 176.142C336.417 176.192 336.285 176.217 336.152 176.216Z" fill="#0D2842"/>
<path d="M341.347 166.461C341.214 166.461 341.082 166.435 340.959 166.384C340.836 166.334 340.724 166.259 340.63 166.164C340.364 165.884 340.068 165.633 339.748 165.418C339.526 165.26 339.376 165.021 339.329 164.752C339.283 164.483 339.345 164.207 339.501 163.983C339.657 163.76 339.894 163.609 340.161 163.562C340.428 163.515 340.702 163.577 340.924 163.735C341.35 164.019 341.744 164.349 342.1 164.718C342.238 164.861 342.331 165.042 342.368 165.239C342.406 165.435 342.385 165.638 342.308 165.822C342.232 166.007 342.103 166.164 341.939 166.276C341.774 166.387 341.58 166.447 341.382 166.449L341.347 166.461Z" fill="#0D2842"/>
<path d="M328.623 171.742H313.125C312.856 171.742 312.599 171.634 312.409 171.443C312.22 171.252 312.113 170.993 312.113 170.722C312.113 170.452 312.22 170.193 312.409 170.002C312.599 169.811 312.856 169.703 313.125 169.703H328.682C328.95 169.703 329.207 169.811 329.397 170.002C329.587 170.193 329.693 170.452 329.693 170.722C329.693 170.993 329.587 171.252 329.397 171.443C329.207 171.634 328.95 171.742 328.682 171.742H328.623Z" fill="#0D2842"/>
<path d="M367.219 171.742H348.404C348.136 171.742 347.878 171.634 347.689 171.443C347.499 171.252 347.393 170.993 347.393 170.722C347.393 170.452 347.499 170.193 347.689 170.002C347.878 169.811 348.136 169.703 348.404 169.703H367.219C367.487 169.703 367.744 169.811 367.934 170.002C368.124 170.193 368.23 170.452 368.23 170.722C368.23 170.993 368.124 171.252 367.934 171.443C367.744 171.634 367.487 171.742 367.219 171.742Z" fill="#0D2842"/>
<path d="M377.05 71.9503C377.752 70.5608 378.877 69.4349 380.261 68.7385C380.352 68.6947 380.422 68.6171 380.457 68.522C380.492 68.4269 380.489 68.3218 380.449 68.2288C380.409 68.1464 380.343 68.0797 380.261 68.0392C378.878 67.3363 377.753 66.207 377.05 64.8155C377.009 64.7248 376.935 64.6541 376.842 64.6186C376.75 64.5831 376.647 64.5857 376.557 64.6259C376.472 64.6629 376.405 64.7307 376.368 64.8155C375.67 66.2061 374.55 67.3356 373.17 68.0392C373.079 68.083 373.009 68.1606 372.974 68.2557C372.938 68.3508 372.941 68.4559 372.982 68.5488C373.022 68.6313 373.088 68.698 373.17 68.7385C374.552 69.4386 375.674 70.5691 376.368 71.9622C376.395 72.032 376.441 72.0921 376.502 72.1346C376.563 72.177 376.635 72.1998 376.709 72.1998C376.784 72.1998 376.856 72.177 376.917 72.1346C376.978 72.0921 377.024 72.032 377.05 71.9622V71.9503Z" fill="#FFD900"/>
<path d="M370.807 106.562C372.011 104.158 373.948 102.205 376.334 100.992C376.491 100.917 376.612 100.783 376.671 100.619C376.731 100.455 376.724 100.273 376.651 100.115C376.584 99.9754 376.472 99.8628 376.334 99.7946C373.946 98.5844 372.008 96.6312 370.807 94.2242C370.733 94.0661 370.6 93.9439 370.437 93.884C370.274 93.824 370.094 93.8313 369.937 93.9042C369.799 93.9725 369.687 94.085 369.619 94.2242C368.415 96.6287 366.478 98.581 364.092 99.7946C363.935 99.8692 363.814 100.003 363.755 100.167C363.695 100.332 363.703 100.513 363.775 100.672C363.836 100.816 363.949 100.93 364.092 100.992C366.476 102.209 368.412 104.16 369.619 106.562C369.693 106.72 369.826 106.842 369.989 106.902C370.152 106.962 370.332 106.955 370.489 106.882C370.63 106.817 370.742 106.703 370.807 106.562Z" fill="#FFD900"/>
<path d="M381.368 93.8278C382.121 93.8278 382.732 93.2122 382.732 92.4529C382.732 91.6937 382.121 91.0781 381.368 91.0781C380.615 91.0781 380.004 91.6937 380.004 92.4529C380.004 93.2122 380.615 93.8278 381.368 93.8278Z" fill="#FFD900"/>
<path d="M277.134 79.3382H223.652V52.0078H234.142" fill="white"/>
<path d="M277.143 80.3533H223.65C223.383 80.3503 223.127 80.2419 222.938 80.0514C222.749 79.8609 222.642 79.6035 222.639 79.3341V52.0037C222.642 51.7343 222.749 51.4769 222.938 51.2864C223.127 51.0959 223.383 50.9875 223.65 50.9845H234.151C234.42 50.9811 234.679 51.0831 234.874 51.2689C235.069 51.4546 235.185 51.7096 235.198 51.98C235.204 52.2484 235.105 52.5084 234.922 52.7037C234.74 52.8989 234.488 53.0137 234.222 53.023H224.661V78.3148H277.143C277.411 78.3148 277.668 78.4222 277.858 78.6134C278.048 78.8045 278.154 79.0638 278.154 79.3341C278.154 79.6044 278.048 79.8637 277.858 80.0548C277.668 80.246 277.411 80.3533 277.143 80.3533Z" fill="#0D2842"/>
<path d="M246.629 52.0078H290.138V73.9337" fill="white"/>
<path d="M290.138 74.9488C289.871 74.9457 289.616 74.8374 289.427 74.6469C289.238 74.4564 289.13 74.1989 289.127 73.9296V53.0229H246.629C246.496 53.0276 246.364 53.006 246.239 52.9591C246.115 52.9122 246 52.841 245.903 52.7497C245.806 52.6583 245.728 52.5486 245.673 52.4266C245.618 52.3047 245.587 52.1731 245.582 52.0392C245.576 51.7697 245.674 51.5083 245.857 51.3112C246.039 51.114 246.291 50.9967 246.558 50.9844H290.138C290.406 50.9875 290.661 51.0958 290.85 51.2863C291.039 51.4768 291.147 51.7343 291.15 52.0036V73.9296C291.15 74.0634 291.124 74.1959 291.073 74.3196C291.022 74.4433 290.947 74.5556 290.853 74.6503C290.76 74.7449 290.648 74.82 290.525 74.8712C290.403 74.9225 290.271 74.9488 290.138 74.9488Z" fill="#0D2842"/>
<path d="M271.968 73.4112C271.7 73.4112 271.443 73.3038 271.253 73.1127C271.064 72.9215 270.957 72.6623 270.957 72.392C270.96 72.2498 270.987 72.1093 271.039 71.9771L277.025 58.549C277.14 58.3115 277.342 58.1282 277.588 58.0379C277.835 57.9476 278.106 57.9573 278.346 58.0649C278.585 58.1725 278.774 58.3696 278.872 58.6147C278.97 58.8598 278.969 59.1337 278.871 59.3786L272.886 72.8068C272.808 72.9866 272.679 73.1396 272.516 73.247C272.354 73.3544 272.163 73.4114 271.968 73.4112Z" fill="#0D2842"/>
<path d="M270.324 63.4883C271.565 63.4883 272.57 62.4748 272.57 61.2246C272.57 59.9744 271.565 58.9609 270.324 58.9609C269.084 58.9609 268.078 59.9744 268.078 61.2246C268.078 62.4748 269.084 63.4883 270.324 63.4883Z" fill="white"/>
<path d="M270.324 64.5113C269.679 64.5113 269.05 64.3187 268.514 63.958C267.978 63.5972 267.561 63.0845 267.314 62.4846C267.068 61.8847 267.003 61.2246 267.129 60.5878C267.255 59.951 267.565 59.366 268.02 58.9069C268.476 58.4477 269.056 58.1351 269.688 58.0084C270.32 57.8817 270.975 57.9467 271.57 58.1952C272.165 58.4437 272.674 58.8645 273.032 59.4044C273.39 59.9442 273.581 60.579 273.581 61.2283C273.581 61.6594 273.497 62.0863 273.333 62.4846C273.169 62.8829 272.929 63.2448 272.627 63.5497C272.325 63.8545 271.965 64.0964 271.57 64.2613C271.175 64.4263 270.751 64.5113 270.324 64.5113ZM270.324 59.9838C270.094 59.9954 269.873 60.0747 269.687 60.2117C269.502 60.3488 269.36 60.5377 269.28 60.755C269.2 60.9724 269.185 61.2086 269.237 61.4344C269.289 61.6603 269.405 61.8659 269.572 62.0258C269.738 62.1857 269.948 62.2928 270.174 62.3339C270.4 62.3751 270.634 62.3484 270.845 62.2572C271.057 62.166 271.237 62.0143 271.364 61.8209C271.49 61.6275 271.558 61.4008 271.558 61.169C271.559 61.0083 271.526 60.8491 271.464 60.7014C271.401 60.5536 271.309 60.4202 271.194 60.3093C271.078 60.1984 270.941 60.1124 270.792 60.0565C270.642 60.0005 270.483 59.9758 270.324 59.9838Z" fill="#0D2842"/>
<path d="M279.59 72.3868C280.83 72.3868 281.836 71.3733 281.836 70.1231C281.836 68.8729 280.83 67.8594 279.59 67.8594C278.349 67.8594 277.344 68.8729 277.344 70.1231C277.344 71.3733 278.349 72.3868 279.59 72.3868Z" fill="white"/>
<path d="M279.589 73.4099C278.942 73.4099 278.31 73.2164 277.772 72.8538C277.234 72.4913 276.815 71.976 276.568 71.3732C276.321 70.7705 276.257 70.1074 276.384 69.468C276.511 68.8285 276.824 68.2415 277.282 67.7811C277.74 67.3208 278.324 67.008 278.959 66.8822C279.594 66.7564 280.251 66.8233 280.849 67.0745C281.446 67.3257 281.955 67.7499 282.313 68.2933C282.671 68.8366 282.861 69.4748 282.858 70.127C282.855 70.9988 282.51 71.8338 281.897 72.4491C281.284 73.0644 280.454 73.4099 279.589 73.4099ZM279.589 68.8707C279.343 68.8707 279.102 68.9444 278.897 69.0824C278.692 69.2205 278.532 69.4167 278.438 69.6462C278.343 69.8758 278.319 70.1284 278.367 70.3721C278.415 70.6158 278.534 70.8396 278.708 71.0153C278.882 71.191 279.104 71.3107 279.346 71.3591C279.588 71.4076 279.839 71.3827 280.066 71.2876C280.294 71.1926 280.489 71.0315 280.626 70.8249C280.763 70.6183 280.836 70.3754 280.836 70.127C280.837 69.9616 280.806 69.7975 280.744 69.6443C280.682 69.4912 280.59 69.3521 280.474 69.2351C280.358 69.1181 280.22 69.0257 280.068 68.9631C279.916 68.9005 279.754 68.8691 279.589 68.8707Z" fill="#0D2842"/>
<path d="M145.404 302.281C225.708 302.281 290.808 300.413 290.808 298.109C290.808 295.805 225.708 293.938 145.404 293.938C65.0995 293.938 0 295.805 0 298.109C0 300.413 65.0995 302.281 145.404 302.281Z" fill="#4094E3"/>
<path d="M176.72 250.836C176.72 250.836 165.737 251.037 162.209 252.412C160.027 253.278 157.926 254.337 155.93 255.577C155.93 255.577 165.114 277.337 166.325 280.892C167.513 285.253 167.911 289.794 167.501 294.297C167.03 297.011 162.903 311.221 162.433 312.821C161.962 314.421 159.74 319.529 165.443 320.003C171.146 320.477 178.59 316.009 178.907 309.621C179.225 303.233 180.166 299.891 181.918 296.063C183.67 292.234 185.446 288.074 182.706 283.926C179.966 279.778 177.238 275.938 176.72 268.756C176.203 261.574 176.72 250.836 176.72 250.836Z" fill="#845853"/>
<path d="M137.912 224.904C136.238 226.705 134.354 228.297 132.303 229.645C124.812 224.904 81.738 197.929 69.0261 187.097C56.3143 176.264 62.1822 165.42 66.4861 162.468C70.79 159.517 89.1463 154.492 89.1463 154.492C89.1463 154.492 97.6953 158.996 101.917 160.999C101.917 160.999 110.572 165.858 116.404 166C119.772 165.977 123.131 165.668 126.447 165.076C124.62 166.153 122.885 167.382 121.261 168.75C111.854 176.608 119.497 192.868 122.743 198.794C124.142 201.485 130.857 212.946 137.912 224.904Z" fill="#004487"/>
<path d="M104.883 79.9451C104.883 79.9451 90.0431 75.4058 83.4109 76.3896C76.7786 77.3733 69.4173 82.7184 60.0922 90.4696C50.7671 98.2207 35.7151 113.13 32.0815 118.748C28.4479 124.366 30.1177 129.664 36.4442 131.785C42.7707 133.907 57.0583 136.028 65.9366 138.007C65.9366 138.007 69.6995 129.51 74.662 125.871L68.5354 124.354L67.6416 125.184C64.3321 123.074 60.8868 121.19 57.3287 119.542C57.3287 119.542 76.1436 112.336 78.9776 111.59C78.9776 111.59 88.6438 138.695 89.1377 154.553C89.1377 154.553 97.6867 159.056 101.908 161.047C101.861 161.035 95.9345 124.354 104.883 79.9451Z" fill="#FFA700"/>
<path d="M101.859 161.031C101.859 161.031 110.526 165.89 116.358 166.044C122.191 166.199 130.928 164.267 130.928 164.267C129.752 151.431 122.697 86.0444 122.697 86.0444C122.179 86.4474 121.109 87.3007 119.757 88.2963C117.497 89.9791 114.701 90.7621 111.903 90.4953C109.106 90.2285 106.505 88.9306 104.599 86.8504C104.282 86.5067 103.999 86.1867 103.764 85.9141C96.4498 127.573 101.859 161.031 101.859 161.031Z" fill="#FFD900"/>
<path d="M144.57 236.288L132.258 229.686C134.31 228.339 136.193 226.747 137.867 224.945C140.125 228.738 142.406 232.625 144.57 236.288Z" fill="#5A3A35"/>
<path d="M179.304 270.836C178.161 269.736 177.277 268.391 176.717 266.901C176.376 259.861 176.776 250.83 176.776 250.83C176.143 244.3 174.939 237.84 173.178 231.523L175.024 232.389C181.362 234.759 180.292 240.815 182.914 245.426C185.537 250.036 189.911 254.907 190.17 261.722C190.429 268.537 182.726 272.827 179.304 270.836Z" fill="#5A3A35"/>
<path d="M179.304 270.842C178.139 269.753 177.235 268.411 176.658 266.919C176.552 264.774 176.517 262.451 176.517 260.258C179.621 259.274 184.243 256.466 182.056 248.762C180.264 243.081 177.9 237.601 175 232.406C181.326 234.777 180.256 240.821 182.879 245.443C185.501 250.066 189.875 254.925 190.134 261.74C190.393 268.554 182.726 272.833 179.304 270.842Z" fill="#4094E3"/>
<path d="M126.4 165.117C124.57 166.19 122.835 167.419 121.214 168.791C115.17 173.852 116.169 182.397 118.521 189.413C113.747 185.123 107.738 178.557 98.8242 174.67C98.8242 174.67 109.137 168.175 116.357 166.03C119.725 166.016 123.084 165.711 126.4 165.117Z" fill="#053361"/>
<path d="M59.6084 129.317C59.7967 131.062 60.2779 132.761 61.0313 134.343C61.4077 132.411 62.1851 130.581 63.3126 128.974C64.5213 126.926 66.3343 125.31 68.4985 124.352L74.6839 125.857C69.7214 129.507 65.9584 137.993 65.9584 137.993C64.4533 137.661 62.7834 137.318 61.0313 136.974L58.1855 136.429C58.411 134.014 58.8879 131.631 59.6084 129.317Z" fill="#FE7A00"/>
<path d="M160.505 160.737C164.033 161.389 171.912 162.396 173.641 162.444C180.355 162.633 179.085 151.836 177.451 146.171C167.843 111.979 153.367 91.8898 150.698 89.6261C137.269 80.0735 122.699 86.0112 122.699 86.0112C122.699 86.0112 129.755 151.433 130.931 164.233C130.931 164.233 141.455 162.088 160.717 168.145L160.505 160.737Z" fill="#FFA700"/>
<path d="M130.164 156.727C130.458 159.547 130.787 162.83 130.928 164.264C130.928 164.264 140.759 162.167 160.715 168.175L160.503 160.732C151.86 159.761 144.311 158.03 139.442 157.319C139.302 157.296 139.159 157.296 139.019 157.319C136.349 157.284 133.304 157.047 130.164 156.727Z" fill="#FE7A00"/>
<path d="M92.9574 75.2121C90.9113 76.6461 89.312 81.4106 95.8737 82.5602C100.577 83.3898 103.164 81.9202 104.881 79.9409C105.587 78.1632 106.222 76.3854 106.516 75.5913C104.587 72.2017 102.659 68.6461 102.412 64.7587C102.364 62.8772 102.53 60.9963 102.906 59.1528C103.411 56.261 103.999 52.8595 104.623 50.2639C107.363 48.6234 109.831 46.5598 111.937 44.1484C111.937 44.1484 114.642 41.0787 115.641 39.6091C116.152 42.9297 117.226 46.137 118.816 49.0906C122.626 56.0002 128.612 62.3647 134.421 63.7513C134.01 66.959 132.783 70.005 130.858 72.5928C129.3 74.3024 127.492 75.7613 125.495 76.9187C124.849 77.3335 124.19 77.7602 123.532 78.1039C123.532 78.1039 119.839 85.3691 124.79 88.095C125.754 88.6284 128.141 87.0284 127.671 85.2861C130.105 89.0313 130.846 90.4417 135.279 90.4654C142.593 90.4654 143.064 84.1721 142.1 79.538C149.155 47.8106 134.585 40.1306 132.563 38.8624C136.091 38.7439 138.666 35.6387 140.1 31.5498C141.876 26.4654 137.584 21.4047 130.693 19.698C127.671 18.9632 123.332 19.9469 121.756 22.5069C117.24 20.3735 111.666 23.3365 111.078 26.3943C110.314 30.2817 111.666 31.9884 113.125 34.1928C105.105 33.4698 99.3427 39.0165 99.3192 40.7943C99.3192 41.9795 100.319 41.8847 101.06 41.8372C95.615 44.0654 90.7466 58.5365 89.5942 64.0002C88.7828 67.7335 89.8412 73.9439 92.9574 75.2121Z" fill="#0A141C"/>
<path d="M102.905 59.1291C102.528 60.9723 102.366 62.8538 102.423 64.735C102.67 68.7528 104.705 72.4032 106.692 75.8995C107.492 77.6478 108.703 79.1732 110.22 80.3439C111.443 81.0721 112.844 81.4415 114.265 81.4106C118.322 81.4106 121.991 79.1232 125.401 76.9069C127.426 75.7554 129.266 74.3008 130.857 72.5928C132.757 70.0032 133.971 66.9685 134.385 63.775C128.576 62.4002 122.626 56.0239 118.769 49.1143C117.211 46.1466 116.139 42.9449 115.594 39.6328C111.043 45.8195 107.28 48.7469 104.575 50.2995C103.999 52.8476 103.423 56.2373 102.905 59.1291Z" fill="#845853"/>
<path d="M103.812 85.8812L104.647 86.8174C106.555 88.8948 109.155 90.1917 111.95 90.4605C114.746 90.7294 117.542 89.9515 119.805 88.2752C121.169 87.2678 122.239 86.4145 122.745 86.0234C121.275 82.9182 123.333 78.5923 123.521 78.1893C120.687 79.9315 117.641 81.4367 114.372 81.4249C112.951 81.4615 111.549 81.0917 110.327 80.3582C108.812 79.1909 107.601 77.6696 106.799 75.9256C106.799 75.8071 106.67 75.7123 106.623 75.5938C106.329 76.3997 105.67 78.1656 104.988 79.9552C104.483 81.9463 104.106 83.9256 103.812 85.8812Z" fill="#5A3A35"/>
<path d="M109.09 71.2031C109.537 71.4165 109.948 71.6179 110.383 71.8076C112.952 72.8275 115.661 73.4431 118.415 73.6328H120.132C117.839 73.5379 116.051 71.9379 114.252 72.3527C113.1 71.3098 111.536 72.2935 109.09 71.2031Z" fill="#5A3A35"/>
<path d="M117.289 69.0818C115.74 69.3114 114.163 68.9477 112.867 68.0625C112.867 68.0625 114.396 71.4284 117.289 69.0818Z" fill="#5A3A35"/>
<path d="M120.743 60.8906C120.44 61.2384 120.218 61.6494 120.092 62.0941C119.966 62.5388 119.939 63.0061 120.014 63.4625C120.014 63.4625 118.779 62.1469 120.743 60.8906Z" fill="#5A3A35"/>
<path d="M106.305 52.8587C106.657 52.7995 109.832 52.3491 111.126 52.9417C112.42 53.5343 116.065 56.995 116.194 55.6676C116.22 55.2886 116.275 54.9122 116.359 54.5417C116.275 54.5728 116.201 54.6251 116.143 54.6936C116.086 54.7622 116.046 54.8446 116.03 54.9328C115.606 53.878 114.36 52.0884 110.997 51.6499C109.353 51.6207 107.733 52.0383 106.305 52.8587Z" fill="#0A141C"/>
<path d="M109.42 72.0156C111.772 78.0601 116.476 77.0171 119.521 74.2082C118.052 75.3009 116.212 75.7611 114.406 75.4878C112.601 75.2145 110.976 74.2299 109.89 72.7504C109.719 72.5156 109.561 72.2702 109.42 72.0156Z" fill="#5A3A35"/>
<path d="M109.09 71.2031C110.548 75.5765 116.451 77.1291 120.12 73.692C119.556 73.692 118.944 73.692 118.403 73.692C115.654 73.4908 112.951 72.8756 110.383 71.8668C109.948 71.6179 109.525 71.4165 109.09 71.2031Z" fill="white"/>
<path d="M107.036 56.0938C108.6 57.9545 112.786 59.4597 114.091 59.8745C114.171 59.6753 114.191 59.4571 114.149 59.2465C114.108 59.036 114.006 58.8423 113.856 58.6893C113.974 58.7258 114.084 58.7855 114.179 58.8648C114.275 58.9442 114.354 59.0417 114.411 59.1517C114.469 59.2618 114.505 59.3823 114.517 59.5063C114.528 59.6303 114.516 59.7554 114.479 59.8745V59.9811C113.903 60.55 112.01 59.9811 112.01 59.9811C111.953 60.1956 111.854 60.3965 111.719 60.5723C111.585 60.7481 111.417 60.8954 111.226 61.0055C111.035 61.1157 110.824 61.1866 110.605 61.2142C110.386 61.2418 110.164 61.2255 109.952 61.1663H109.846C108.776 60.8226 109.129 59.1515 109.129 59.1515C108.379 58.7575 107.696 58.2454 107.106 57.6345C106.914 57.4284 106.801 57.1598 106.788 56.8773C106.775 56.5947 106.863 56.3168 107.036 56.0938Z" fill="#0A141C"/>
<path d="M114.311 43.663C112.883 45.2504 111.054 46.4177 109.02 47.0407C111.481 44.7948 113.704 42.2964 115.652 39.5859C116.186 42.9008 117.259 46.1042 118.827 49.0674C122.637 55.977 128.634 62.3533 134.443 63.7282C134.136 65.5239 133.635 67.2806 132.95 68.9667C132.95 68.9667 117.474 60.7889 114.311 43.663Z" fill="#5A3A35"/>
<path d="M121.801 61.6274C121.801 61.6274 127.528 62.3266 130.032 61.0703C130.097 61.322 130.079 61.5884 129.979 61.8283C129.879 62.0682 129.704 62.2683 129.48 62.3977C128.691 62.7165 127.858 62.9085 127.01 62.9666C127.01 62.9666 126.669 64.6377 125.54 64.5074C125.322 64.4923 125.109 64.4341 124.914 64.3359C124.718 64.2377 124.544 64.1015 124.401 63.9352C124.258 63.7689 124.149 63.5758 124.08 63.3668C124.011 63.1579 123.984 62.9373 124 62.7177C124.005 62.6784 124.005 62.6385 124 62.5992C124 62.5992 122.095 62.3385 121.801 61.6274Z" fill="#0A141C"/>
<path d="M121.249 57.1112C121.367 56.8149 123.33 54.6224 127.811 55.9261C129.329 56.5502 130.673 57.5389 131.726 58.8061C131.726 58.8061 128.751 56.9809 127.14 56.9335C125.529 56.8861 120.814 58.2372 121.249 57.1112Z" fill="#0A141C"/>
<path d="M112.676 33.6515C112.805 33.8648 112.946 34.0663 113.087 34.2678C120.413 33.8885 132.525 38.9137 132.525 38.9137C133.266 38.8937 133.996 38.7329 134.677 38.4396C128.038 34.5204 120.329 32.8427 112.676 33.6515Z" fill="#FFA700"/>
<path d="M116.358 166.041C110.479 165.899 101.859 161.039 101.859 161.039C101.859 161.039 96.4498 127.57 103.764 85.875L104.611 86.8113C104.611 86.8113 104.705 124.868 107.398 137.999C109.39 147.64 112.394 157.04 116.358 166.041Z" fill="#FFC000"/>
<path d="M115.665 126.305L114.136 145.742C114.12 145.961 114.06 146.176 113.962 146.372C113.863 146.569 113.726 146.743 113.56 146.887C113.394 147.03 113.202 147.139 112.994 147.206C112.786 147.274 112.566 147.3 112.349 147.282L101.177 146.453C100.769 146.424 100.385 146.245 100.099 145.95C99.8129 145.655 99.6442 145.265 99.625 144.853L98.8136 125.297C98.7976 124.848 98.9578 124.411 99.2593 124.081C99.5609 123.75 99.9796 123.553 100.425 123.531H100.601L114.101 124.479C114.32 124.493 114.535 124.55 114.732 124.647C114.93 124.745 115.106 124.881 115.251 125.047C115.397 125.213 115.508 125.407 115.579 125.616C115.65 125.826 115.679 126.048 115.665 126.269V126.305Z" fill="white"/>
<path d="M147.415 142.283L153.448 141.607C153.448 141.607 149.073 122.134 145.769 116.078C145.735 124.84 146.285 133.595 147.415 142.283Z" fill="#FE7A00"/>
<path d="M139.734 158.397L146.79 158.99C143.397 155.278 140.575 151.075 138.417 146.522C137.984 145.629 137.299 144.886 136.447 144.386C135.595 143.886 134.615 143.652 133.631 143.713L131.279 143.879C131.279 143.879 135.618 152.175 139.734 158.397Z" fill="#FFC000"/>
<path d="M141.441 152.016C142.885 154.336 144.521 156.529 146.333 158.57C148.497 158.973 150.919 159.423 153.389 159.826C148.379 157.041 141.441 152.016 141.441 152.016Z" fill="#FE7A00"/>
<path d="M97.5541 142.34C97.5526 142.682 97.6244 143.02 97.7644 143.331C97.9045 143.641 98.1095 143.918 98.3655 144.142C98.107 144.65 97.9891 145.219 98.0245 145.789C98.3341 146.544 98.7542 147.247 99.271 147.875C99.6073 148.375 100.002 148.833 100.447 149.238C101.235 149.878 103.975 150.494 105.786 151.609C109.926 154.157 114.681 155.51 119.532 155.52C125.8 156.231 133.267 157.262 138.959 157.309C135.49 151.905 131.997 145.457 131.292 144.118C130.268 144.118 129.151 144.118 127.964 144.118C125.781 143.998 123.607 143.76 121.449 143.407C121.367 142.933 119.556 139.531 118.592 136.296C117.557 132.906 118.298 131.306 117.533 129.422C116.898 127.857 115.534 128.13 115.499 128.414C115.464 128.699 114.805 137.552 114.805 137.552C114.805 137.552 108.925 135.431 107.949 134.98C106.973 134.53 103.246 133.013 101.2 132.1C99.6002 131.389 98.4361 131.152 97.7423 132.1C97.0485 133.049 98.2479 134.388 98.9182 135.04C99.5885 135.691 105.445 138.844 106.691 139.603C107.938 140.361 109.149 141.238 108.714 141.238C106.991 140.633 105.303 139.933 103.657 139.14C102.234 138.536 100.776 137.955 99.2945 137.54C99.2945 137.54 98.7065 137.54 98.342 138.726C98.2441 139.092 98.2293 139.477 98.2985 139.85C98.3677 140.223 98.5192 140.576 98.7418 140.883C98.7418 140.883 97.4718 141.286 97.5541 142.34Z" fill="#845853"/>
<path d="M136.103 157.214C137.114 157.214 138.09 157.297 139.019 157.309C136.35 153.161 133.669 148.385 132.258 145.789C133.009 149.758 134.303 153.604 136.103 157.214Z" fill="#5A3A35"/>
<path d="M176.52 261.763C176.52 256.122 176.72 250.836 176.72 250.836C176.72 250.836 165.737 251.037 162.209 252.412C160.028 253.28 157.927 254.339 155.93 255.577C155.93 255.577 156.494 256.904 157.353 258.966C160.696 258.64 164.063 258.64 167.407 258.966C170.533 259.574 173.588 260.512 176.52 261.763Z" fill="#5A3A35"/>
<path d="M182.74 283.891C185.433 288.039 183.693 292.187 181.953 296.027C180.212 299.867 179.26 303.209 178.942 309.585C178.625 315.962 171.181 320.442 165.478 319.968C159.774 319.494 161.95 314.385 162.467 312.785C162.679 312.051 163.643 308.649 164.725 304.916C165.037 306.288 165.875 307.48 167.056 308.231C168.237 308.981 169.665 309.23 171.028 308.922L171.369 308.827C172.659 308.523 173.846 307.877 174.805 306.956C175.764 306.035 176.462 304.872 176.825 303.588C177.812 300.57 179.031 297.634 180.471 294.806C182.052 291.393 182.829 287.657 182.74 283.891Z" fill="#6EB3F0"/>
<path d="M176.718 250.83C176.718 250.83 165.735 251.031 162.207 252.406C160.026 253.274 157.925 254.333 155.928 255.571C155.928 255.571 125.941 204.774 122.696 198.836C119.45 192.898 111.819 176.649 121.214 168.791C122.838 167.423 124.573 166.194 126.4 165.117C129.022 164.691 130.927 164.276 130.927 164.276C130.927 164.276 141.64 162.154 160.714 168.187C160.714 168.187 171.297 194.581 156.316 193.597C156.316 193.585 173.896 220.217 176.718 250.83Z" fill="#0559AD"/>
<path d="M168.404 251.26C170.368 251.082 172.355 250.964 173.908 250.893C173.908 250.893 165.018 204.362 148.037 186.016C148.037 186.016 159.279 208.297 163.936 228.848C167.17 243.307 168.404 251.26 168.404 251.26Z" fill="#1773CF"/>
<path d="M201.33 258.581C171.932 258.581 147.837 250.284 129.657 233.822C96.2018 203.541 94.5673 155.529 94.5555 155.055C94.5493 154.876 94.5781 154.698 94.6405 154.531C94.7028 154.364 94.7974 154.211 94.9188 154.081C95.0402 153.951 95.1859 153.847 95.3476 153.774C95.5093 153.701 95.6837 153.661 95.8608 153.656C96.215 153.656 96.556 153.792 96.814 154.036C97.072 154.281 97.2274 154.615 97.2484 154.972C97.2484 155.446 98.883 202.379 131.48 231.807C151.859 250.249 179.952 258.154 214.971 255.298C215.327 255.271 215.679 255.387 215.952 255.62C216.225 255.852 216.396 256.184 216.429 256.542C216.459 256.891 216.353 257.239 216.134 257.511C215.914 257.783 215.598 257.958 215.253 258C210.455 258.395 205.814 258.589 201.33 258.581Z" fill="#FFD900"/>
<path d="M333.73 289.994C333.556 289.994 333.384 289.957 333.225 289.887C333.061 289.822 332.912 289.724 332.785 289.601C332.659 289.477 332.558 289.33 332.488 289.167C332.418 289.004 332.38 288.829 332.378 288.652C332.375 288.474 332.407 288.298 332.472 288.133C332.782 287.357 332.89 286.514 332.785 285.684C332.68 284.854 332.366 284.065 331.872 283.392C331.759 283.255 331.675 283.097 331.622 282.927C331.57 282.757 331.552 282.578 331.568 282.401C331.585 282.224 331.636 282.052 331.718 281.894C331.8 281.737 331.913 281.598 332.049 281.484C332.185 281.37 332.341 281.285 332.51 281.232C332.679 281.18 332.856 281.161 333.032 281.178C333.208 281.194 333.378 281.245 333.535 281.329C333.691 281.412 333.829 281.525 333.942 281.662C334.739 282.704 335.254 283.937 335.435 285.239C335.616 286.542 335.458 287.87 334.977 289.093C334.884 289.353 334.715 289.578 334.492 289.739C334.27 289.899 334.004 289.988 333.73 289.994Z" fill="#0D2842"/>
<path d="M337.612 286.196C337.301 286.193 337 286.083 336.759 285.885C336.517 285.687 336.35 285.412 336.283 285.106C336.117 284.244 335.755 283.433 335.225 282.735C334.99 282.465 334.87 282.112 334.893 281.753C334.917 281.394 335.08 281.059 335.349 280.821C335.617 280.584 335.967 280.464 336.324 280.487C336.68 280.511 337.012 280.676 337.248 280.946C338.095 282.002 338.673 283.251 338.929 284.584C338.998 284.938 338.926 285.305 338.728 285.605C338.529 285.904 338.221 286.113 337.871 286.184L337.612 286.196Z" fill="#0D2842"/>
<path d="M316.971 296.499C301.825 296.665 206.833 296.736 206.833 296.736C207.01 288.143 214.43 288.439 214.43 288.439H217.487C210.714 283.189 211.278 269.322 213.959 261.441C214.077 261.073 214.195 260.718 214.289 260.362C214.383 260.007 214.524 259.533 214.618 259.177C214.827 258.346 214.984 257.503 215.088 256.653C215.088 256.19 215.171 255.776 215.182 255.361C215.312 252.042 214.265 250.134 212.83 250.099C210.476 249.883 208.141 249.486 205.845 248.913C205.845 248.913 191.981 245.63 195.262 236.848C198.543 228.066 209.949 232.937 209.949 232.937C209.949 232.937 216.123 224.072 227.365 229.014C238.383 233.873 239.124 243.355 236.561 250.087C236.42 250.678 236.403 251.291 236.511 251.889C236.618 252.487 236.847 253.056 237.184 253.559C237.42 253.942 237.709 254.29 238.042 254.59C238.765 255.255 239.602 255.782 240.512 256.143L240.9 256.309L242.076 256.724C244.8 257.737 247.599 258.53 250.448 259.094C261.867 261.322 272.674 259.829 282.199 258.276C287.29 257.47 292.018 256.629 296.31 256.356C313.431 255.23 317.112 274.407 318.547 283.983C319.229 288.534 323.25 286.78 327.049 283.545C327.244 283.395 327.476 283.302 327.719 283.276C327.963 283.25 328.209 283.291 328.431 283.396C328.653 283.501 328.842 283.666 328.978 283.872C329.113 284.078 329.191 284.317 329.201 284.564C329.777 294.235 321.251 296.048 316.971 296.499Z" fill="#DEDFE0"/>
<path d="M314.477 298.096C314.119 298.096 313.775 297.952 313.521 297.697C313.267 297.441 313.125 297.094 313.125 296.733C313.124 296.449 313.212 296.172 313.377 295.942C313.541 295.712 313.775 295.541 314.042 295.453C314.172 295.453 316.394 294.517 317.358 290.712C317.47 290.389 317.697 290.12 317.996 289.959C318.295 289.797 318.643 289.755 318.972 289.84C319.3 289.925 319.585 290.131 319.77 290.418C319.955 290.704 320.026 291.051 319.969 291.388C318.617 296.709 315.054 297.942 314.901 297.989C314.766 298.048 314.623 298.084 314.477 298.096Z" fill="#0D2842"/>
<path d="M215.125 237.287C216.028 237.287 216.759 236.549 216.759 235.64C216.759 234.73 216.028 233.992 215.125 233.992C214.222 233.992 213.49 234.73 213.49 235.64C213.49 236.549 214.222 237.287 215.125 237.287Z" fill="#0A141C"/>
<path d="M282.141 258.227C280.495 262.778 276.414 271.773 269.782 271.181C260.598 270.363 261.162 263.797 261.162 263.797C261.162 263.797 253.871 267.115 250.367 259.056C261.785 261.261 272.592 259.767 282.141 258.227Z" fill="#0D2842"/>
<path d="M224.004 288.5H217.489C213.961 285.762 212.421 280.666 212.127 275.297C212.127 275.297 216.125 284.198 224.004 288.5Z" fill="#C2E3FC"/>
<path d="M206.834 298.096C206.478 298.087 206.139 297.936 205.893 297.676C205.646 297.417 205.511 297.069 205.517 296.71C205.465 295.373 205.685 294.039 206.164 292.792C206.644 291.544 207.372 290.409 208.304 289.456C210.012 287.92 212.224 287.076 214.513 287.086L228.178 287.252C228.535 287.258 228.876 287.406 229.127 287.663C229.378 287.92 229.518 288.266 229.518 288.627C229.521 288.801 229.49 288.974 229.427 289.137C229.364 289.299 229.269 289.447 229.149 289.572C229.029 289.698 228.885 289.798 228.727 289.868C228.568 289.937 228.398 289.975 228.225 289.978H228.154L214.443 289.812C212.855 289.801 211.319 290.379 210.127 291.436C209.469 292.145 208.96 292.981 208.631 293.893C208.301 294.806 208.158 295.776 208.21 296.745C208.209 296.925 208.172 297.103 208.102 297.269C208.032 297.434 207.93 297.584 207.802 297.71C207.674 297.835 207.522 297.934 207.356 298.001C207.19 298.067 207.013 298.099 206.834 298.096Z" fill="#0D2842"/>
<path d="M271.428 298.097C271.072 298.088 270.733 297.937 270.486 297.677C270.24 297.417 270.105 297.07 270.111 296.71C270.059 295.373 270.279 294.04 270.758 292.792C271.238 291.545 271.966 290.409 272.898 289.457C274.093 288.356 275.566 287.61 277.155 287.3C275.85 283.519 273.733 274.452 280.683 268.669C282.966 266.744 285.654 265.368 288.543 264.645C291.432 263.922 294.446 263.871 297.357 264.497C297.71 264.566 298.021 264.773 298.221 265.073C298.422 265.374 298.496 265.742 298.427 266.097C298.359 266.452 298.153 266.765 297.855 266.967C297.558 267.17 297.192 267.245 296.84 267.175C294.324 266.606 291.711 266.63 289.206 267.247C286.701 267.864 284.372 269.056 282.4 270.731C275.226 276.657 280.212 287.738 280.271 287.845C280.373 288.056 280.42 288.29 280.407 288.524C280.395 288.758 280.324 288.985 280.201 289.184C280.069 289.375 279.893 289.531 279.688 289.639C279.483 289.746 279.256 289.802 279.025 289.801C277.456 289.814 275.943 290.389 274.756 291.424C274.099 292.134 273.589 292.97 273.258 293.882C272.927 294.794 272.781 295.764 272.828 296.734C272.829 296.917 272.794 297.099 272.724 297.269C272.653 297.438 272.55 297.591 272.419 297.719C272.288 297.846 272.132 297.945 271.962 298.011C271.792 298.076 271.61 298.105 271.428 298.097Z" fill="#0D2842"/>
<path d="M337.362 298.101H197.203C196.844 298.11 196.496 297.976 196.236 297.727C195.976 297.478 195.824 297.135 195.815 296.774C195.806 296.412 195.939 296.062 196.186 295.799C196.433 295.537 196.773 295.384 197.132 295.375H337.362C337.72 295.375 338.064 295.519 338.318 295.774C338.571 296.03 338.714 296.376 338.714 296.738C338.714 297.099 338.571 297.446 338.318 297.702C338.064 297.957 337.72 298.101 337.362 298.101Z" fill="#0D2842"/>
<path d="M229.812 259.152C228.919 259.294 228.001 259.425 227.049 259.531C222.893 259.974 218.698 259.858 214.572 259.187C214.89 257.938 215.079 256.659 215.137 255.371C217.489 255.442 221.487 255.49 225.849 255.217C226.708 255.158 227.566 255.099 228.436 255.016C228.789 256.428 229.249 257.811 229.812 259.152Z" fill="#FFD900"/>
<path d="M226.799 246.362C227.622 252.892 229.738 263.144 233.772 263.405C238.17 263.701 244.579 255.95 241.839 244.868C240.275 238.48 235.606 233.574 231.596 234.083C227.586 234.593 225.987 239.831 226.799 246.362Z" fill="#0D2842"/>
<path d="M240.959 257.446C239.713 262.85 237.149 268.112 231.105 265.446C229.659 264.817 228.459 263.075 227.518 260.764C223.099 261.284 218.629 261.169 214.242 260.42C214.372 259.994 214.477 259.591 214.571 259.235C218.697 259.906 222.892 260.022 227.048 259.579C226.13 256.86 225.495 254.052 225.155 251.2C224.543 246.34 225.155 242.121 226.93 239.68C226.529 241.902 226.485 244.175 226.801 246.412C227.624 252.93 229.741 263.194 233.774 263.455C236.185 263.573 239.184 261.333 240.959 257.446Z" fill="#C2E3FC"/>
<path d="M229.814 259.152C228.921 259.294 228.003 259.425 227.051 259.531C226.566 258.121 226.173 256.679 225.875 255.217C226.733 255.158 227.592 255.099 228.462 255.016C228.807 256.427 229.259 257.81 229.814 259.152Z" fill="#FFC000"/>
<path d="M196.71 234.23C198.52 233.993 203.013 232.808 204.424 231.623C204.155 230.812 203.605 230.126 202.875 229.691C202.145 229.256 201.284 229.1 200.449 229.252C199.886 229.323 199.342 229.504 198.849 229.787C198.355 230.069 197.922 230.447 197.574 230.898C197.225 231.349 196.968 231.865 196.818 232.417C196.668 232.968 196.627 233.544 196.698 234.112C196.698 234.112 196.71 234.195 196.71 234.23Z" fill="#0D2842"/>
<path d="M80.1766 157.216L76.7664 162.17C76.2373 162.94 75.2024 164.54 74.4146 163.142L73.5091 161.032C73.3652 160.682 73.3253 160.298 73.3942 159.925C73.4631 159.553 73.6378 159.209 73.8971 158.935C75.5022 157.362 77.3339 156.044 79.33 155.023L80.1766 157.216Z" fill="#FFD900"/>
<path d="M75.1674 165.063H75.0615C74.6738 165.038 74.2999 164.908 73.9792 164.687C73.6585 164.466 73.4027 164.162 73.2388 163.807L72.2746 161.591C72.0269 160.984 71.9606 160.317 72.0838 159.673C72.2071 159.029 72.5146 158.435 72.9684 157.964C74.666 156.277 76.6189 154.873 78.7539 153.804C78.9218 153.723 79.1046 153.678 79.2906 153.673C79.4766 153.667 79.6618 153.7 79.8344 153.77C80.0069 153.84 80.1631 153.946 80.2929 154.08C80.4227 154.215 80.5234 154.375 80.5884 154.551L81.4115 156.732C81.4929 156.937 81.5216 157.16 81.4949 157.379C81.4681 157.599 81.3869 157.808 81.2587 157.988L77.9426 162.942C77.2605 163.855 76.4374 165.063 75.1674 165.063ZM74.8499 159.932C74.7912 160.02 74.755 160.121 74.7448 160.226C74.7345 160.332 74.7504 160.438 74.7911 160.536L75.3555 161.852L75.6025 161.508L78.6716 157.028V156.957C77.2952 157.807 76.0139 158.804 74.8499 159.932Z" fill="#FFD900"/>
<path d="M94.6172 152.391L95.899 152.497L96.9103 155.413L95.6873 156.124L94.6172 152.391Z" fill="white"/>
<path d="M95.6982 157.473C95.5254 157.471 95.3543 157.439 95.1925 157.378C95.0051 157.3 94.8373 157.18 94.7011 157.029C94.5649 156.877 94.4637 156.697 94.4047 156.501L93.3228 152.768C93.2725 152.597 93.2563 152.417 93.2753 152.24C93.2942 152.062 93.3479 151.89 93.4332 151.734C93.5185 151.577 93.6337 151.439 93.7722 151.328C93.9107 151.216 94.0697 151.134 94.24 151.085C94.4033 151.055 94.5706 151.055 94.7339 151.085L96.0157 151.191C96.2786 151.206 96.5311 151.3 96.7407 151.46C96.9503 151.621 97.1074 151.841 97.1916 152.092L98.2029 155.02C98.3042 155.32 98.2986 155.646 98.187 155.942C98.0754 156.239 97.8648 156.487 97.5914 156.643L96.4155 157.343C96.1931 157.453 95.9447 157.498 95.6982 157.473Z" fill="#FFD900"/>
<path d="M65.959 137.991C69.26 138.468 72.4929 139.34 75.5899 140.586L76.4012 142.826C76.4012 142.826 77.4596 149.084 77.5772 149.843C77.6948 150.601 80.3053 157.451 80.4347 157.783C81.2162 158.666 82.0528 159.497 82.9394 160.272C83.4759 160.481 84.0608 160.53 84.6241 160.412C85.1873 160.295 85.7048 160.015 86.1144 159.608C86.6637 159.825 87.2572 159.902 87.843 159.834C88.3406 159.592 88.7938 159.268 89.1836 158.874C89.1836 158.874 90.2419 160.355 91.5355 159.834C91.8331 159.71 92.096 159.515 92.301 159.265C92.5061 159.014 92.647 158.717 92.7114 158.4C92.7687 158.15 92.7439 157.888 92.6408 157.653C92.3116 156.871 91.1944 153.825 91.1944 153.825C92.3704 155.733 94.1578 159.123 95.6277 158.34C95.946 158.201 96.2017 157.948 96.345 157.629C96.4844 156.691 96.3368 155.731 95.9217 154.88C95.663 153.967 93.4875 149.546 93.4405 149.321C93.5463 149.44 95.8982 153.114 98.1442 151.182C98.591 150.826 96.5096 147.164 96.1216 146.441C95.7335 145.718 89.2071 136.96 88.725 136.343C86.8557 134.688 84.7803 133.286 82.5514 132.171C82.5514 132.171 77.001 127.751 73.4849 126.992C69.087 130.951 65.959 137.991 65.959 137.991Z" fill="#845853"/>
</g>
<defs>
<clipPath id="clip0_2287_70107">
<rect width="384" height="320" fill="white"/>
</clipPath>
</defs>
</svg>
