<svg width="" xmlns="http://www.w3.org/2000/svg" version="1.1" id="Layer_1" x="0px" y="0px" width="100%" viewBox="0 0 2500 500" enable-background="new 0 0 7500 500" class="max-w-[180px]"><path fill="none" opacity="1.000000" stroke="none" d=" M1.000000,352.000000   C1.000000,235.007904 1.000000,118.015800 1.000000,1.017778   C834.269104,1.011852 1667.538208,1.011852 2500.903809,1.011852   C2500.903809,167.591187 2500.903809,334.182465 2500.903809,500.886841   C1667.666626,500.886841 834.333313,500.886841 1.000003,500.890991   C1.000000,470.897369 1.000000,440.899597 1.468390,410.468018   C42.576885,410.035645 83.218834,409.797058 123.856552,410.109192   C161.007233,410.394501 194.251617,399.123505 223.779861,377.020294   C232.963699,370.145782 240.973846,361.703339 249.521301,353.978699   C249.209747,353.471161 248.898209,352.963593 248.586670,352.456055   C246.811951,352.456055 245.037247,352.456085 243.262527,352.456085   C164.480576,352.456085 85.698624,352.459351 6.916679,352.436951   C4.944412,352.436401 2.972225,352.152008 1.000000,352.000000  M660.382202,342.368530   C642.167236,336.431580 630.539246,320.094635 630.463806,300.086914   C682.882996,300.086914 735.301270,300.086914 787.582153,300.086914   C789.100220,307.666351 790.193665,315.084442 792.093994,322.289764   C803.043396,363.807709 833.326355,396.183289 875.577271,401.410004   C905.738953,405.141174 932.856018,398.505981 954.304199,375.374084   C956.593811,372.904724 958.647522,370.216675 961.721680,366.540802   C961.721680,378.174072 961.721680,388.386078 961.721680,398.632965   C985.796997,398.632965 1009.337097,398.632965 1032.788086,398.632965   C1032.788086,320.987427 1032.788086,243.709656 1032.788086,166.339752   C1009.014709,166.339752 985.464905,166.339752 961.368774,166.339752   C961.368774,176.836716 961.368774,186.998672 961.368774,198.176758   C958.573853,194.705444 956.646790,192.005203 954.413757,189.587372   C937.620789,171.403976 916.497620,163.196991 892.061340,162.923294   C857.891418,162.540588 830.293396,175.642410 810.087219,203.467392   C800.404175,216.801498 794.401001,231.839249 790.203491,247.891342   C789.197021,245.806000 788.591125,243.659622 787.962646,241.519882   C779.813538,213.775238 763.959473,191.846649 738.359802,177.901733   C704.874939,159.661514 669.581604,158.399063 633.851929,169.612885   C600.690308,180.020721 578.408325,202.567001 566.964783,235.254349   C555.981201,266.627716 556.028503,298.414124 566.990295,329.777832   C577.102905,358.711975 596.602417,379.499542 624.608276,392.119934   C643.700989,400.723816 663.811340,403.316864 684.575134,402.063599   C720.861023,399.873444 750.717590,385.597961 772.070068,355.487885   C779.200073,345.433563 784.305298,334.377991 787.115479,322.087769   C786.014099,321.973663 785.363220,321.847595 784.712341,321.847290   C761.379578,321.836029 738.046387,321.774872 714.715210,321.967896   C713.079773,321.981415 711.165649,323.610260 709.889404,324.966339   C706.381165,328.694031 703.681091,333.379547 699.697327,336.425140   C688.116089,345.278870 674.804932,345.531708 660.382202,342.368530  M2338.309326,246.973907   C2348.348145,228.913147 2364.671143,224.529602 2383.770020,225.896942   C2400.836670,227.118774 2414.569580,237.009323 2419.387939,253.252014   C2421.478760,260.300964 2422.114258,267.992950 2422.163086,275.401062   C2422.422363,314.727081 2422.285156,354.055756 2422.285156,393.383484   C2422.285156,395.158051 2422.285400,396.932617 2422.285400,398.628662   C2446.307617,398.628662 2469.698975,398.628662 2492.969971,398.628662   C2492.969971,349.600739 2493.352539,300.940887 2492.769531,252.292587   C2492.555908,234.475479 2487.390869,217.519867 2477.443359,202.350037   C2455.822754,169.378754 2419.615723,160.236053 2385.159668,164.698364   C2358.365234,168.168411 2337.588135,182.513214 2321.948242,204.387970   C2321.388428,205.170837 2321.117432,206.160217 2320.444580,207.642273   C2303.542969,179.896210 2279.660156,166.491379 2249.378418,164.033279   C2219.240967,161.586853 2193.444580,170.696625 2172.564453,195.074814   C2172.564453,184.492752 2172.564453,175.413803 2172.564453,166.347229   C2148.535400,166.347229 2124.977783,166.347229 2101.534180,166.347229   C2101.534180,244.070862 2101.534180,321.445465 2101.534180,398.737061   C2125.357910,398.737061 2148.794189,398.737061 2172.677734,398.737061   C2172.677734,396.515930 2172.675781,394.552948 2172.677979,392.589966   C2172.723389,351.263306 2172.372803,309.931061 2172.956543,268.612000   C2173.335449,241.769897 2189.660400,226.298828 2216.465820,225.610565   C2238.044434,225.056519 2253.946533,235.360794 2259.345947,254.240341   C2261.149170,260.545166 2261.850098,267.356781 2261.887695,273.943329   C2262.113281,313.769714 2262.000000,353.598053 2262.000000,393.425720   C2262.000000,395.193298 2262.000000,396.960876 2262.000000,398.670013   C2285.983154,398.670013 2309.376221,398.670013 2332.987549,398.670013   C2332.987549,396.526550 2332.987549,394.709473 2332.987549,392.892395   C2332.987793,353.231354 2333.012939,313.570312 2332.968994,273.909332   C2332.958984,264.814484 2334.076416,255.981201 2338.309326,246.973907  M550.811096,363.500031   C550.811096,272.438263 550.811096,181.376480 550.811096,90.364609   C526.639771,90.364609 503.093719,90.364609 478.986206,90.364609   C478.986206,126.031799 478.986206,161.335876 478.986206,197.445145   C476.023193,193.901901 473.884186,190.925552 471.332245,188.359970   C454.111908,171.047562 432.929871,163.000061 408.818359,162.958038   C369.380371,162.889313 339.330688,180.032471 320.908295,214.906357   C299.662201,255.125534 299.079041,297.341675 315.691162,338.967896   C329.549713,373.694214 355.307770,396.157043 393.502167,401.379333   C416.005035,404.456116 437.905609,401.696930 457.019562,388.350433   C465.156830,382.668549 471.979950,375.104584 479.230103,368.549805   C479.230103,377.892242 479.230103,388.240997 479.230103,398.693909   C503.348816,398.693909 526.898254,398.693909 550.810974,398.693909   C550.810974,387.093262 550.810974,375.796661 550.811096,363.500031  M1666.459595,228.919159   C1675.019165,233.894516 1681.426514,240.981293 1683.996460,250.457352   C1686.147217,258.388000 1687.651611,266.753601 1687.729248,274.942780   C1688.103638,314.434052 1687.898071,353.930786 1687.898193,393.425598   C1687.898193,395.188477 1687.898193,396.951355 1687.898193,398.622620   C1711.892456,398.622620 1735.274780,398.622620 1758.866943,398.622620   C1758.866943,396.427734 1758.866943,394.609192 1758.866821,392.790680   C1758.866577,352.296021 1758.913574,311.801239 1758.826172,271.306763   C1758.808960,263.317017 1758.613403,255.299210 1757.924927,247.344101   C1754.121948,203.395630 1727.017944,169.428986 1683.605835,164.469223   C1658.377930,161.586990 1634.776367,165.753494 1614.180542,181.472992   C1608.602051,185.730576 1603.835083,191.051239 1598.320801,196.236496   C1598.320801,160.803314 1598.320801,125.610374 1598.320801,90.352646   C1574.302246,90.352646 1550.757935,90.352646 1527.400146,90.352646   C1527.400146,193.423965 1527.400146,296.142090 1527.400146,398.705780   C1551.213379,398.705780 1574.652954,398.705780 1598.353027,398.705780   C1598.353027,396.597046 1598.353027,394.778870 1598.353027,392.960663   C1598.353027,354.632355 1598.331543,316.304047 1598.380005,277.975800   C1598.385986,273.150116 1598.594238,268.311249 1598.991211,263.501801   C1600.628418,243.663055 1612.990723,228.536743 1631.336182,224.539108   C1643.168579,221.960709 1654.844238,222.783615 1666.459595,228.919159  M1929.346924,393.888367   C1962.332397,380.481903 1983.434204,356.564117 1993.449585,321.834381   C1991.101318,321.834381 1989.457642,321.834381 1987.813965,321.834381   C1965.988159,321.834381 1944.161621,321.933014 1922.337524,321.737976   C1918.671631,321.705231 1916.867554,322.919159 1914.968262,325.987610   C1912.649292,329.734680 1909.719604,333.474670 1906.196533,336.040192   C1892.371216,346.108093 1877.085571,346.894928 1861.765015,340.429382   C1844.344116,333.077484 1837.673584,318.256042 1836.100952,299.690765   C1890.152954,299.690765 1943.851318,299.690765 1997.523804,299.690765   C1999.421631,284.441711 1999.526245,269.828278 1996.968872,255.293030   C1990.242188,217.062164 1970.197876,188.792679 1934.273560,172.828217   C1912.068604,162.960480 1888.632324,161.005508 1864.795898,164.011353   C1823.384277,169.233475 1792.556274,189.548615 1775.502808,228.509949   C1765.361328,251.679596 1763.320923,276.100250 1766.165039,300.950378   C1769.289185,328.244659 1779.228271,352.783264 1799.883667,371.444550   C1837.840942,405.737488 1881.695312,409.260254 1929.346924,393.888367  M1185.044678,383.491486   C1188.184326,385.366333 1191.236816,387.409576 1194.477905,389.088715   C1215.445190,399.951019 1237.827881,403.541565 1261.224854,402.051178   C1297.102295,399.765747 1326.717529,385.676056 1347.984863,356.004517   C1355.281128,345.824921 1360.535645,334.622406 1363.345459,322.146881   C1362.295532,322.010162 1361.645752,321.851959 1360.996094,321.851532   C1337.666382,321.836792 1314.336182,321.774841 1291.008057,321.966522   C1289.356567,321.980103 1287.400879,323.582062 1286.140381,324.954102   C1283.014038,328.356873 1280.620117,332.521332 1277.193359,335.541870   C1268.527222,343.180542 1257.858765,344.413757 1246.769531,344.096771   C1224.499634,343.460083 1205.461426,322.529968 1207.093018,299.715942   C1260.623413,299.715942 1314.193726,299.715942 1367.792725,299.715942   C1369.689209,284.065826 1369.814331,268.934784 1367.009521,253.918213   C1359.798706,215.312088 1338.959229,187.255447 1302.336792,171.884140   C1280.267822,162.621246 1257.081421,160.939316 1233.656494,164.144272   C1193.141113,169.687500 1162.836182,189.869125 1146.006226,228.007889   C1135.139648,252.633118 1133.323242,278.538574 1137.057617,304.870026   C1141.698608,337.594452 1156.727417,364.235168 1185.044678,383.491486  M166.499969,320.164978   C199.830322,320.164978 233.160934,320.105103 266.490631,320.252380   C270.045288,320.268066 271.969238,319.264160 273.140320,315.910309   C275.985168,307.762909 279.602203,299.848083 281.917755,291.562805   C284.483063,282.383942 285.947388,272.897430 288.056335,262.750122   C257.257843,262.750122 227.867844,262.750122 198.394867,262.750122   C198.394867,251.775864 198.394867,241.357620 198.394867,230.341980   C228.049530,230.341980 257.417145,230.341980 287.095886,230.341980   C284.940826,211.381454 279.962128,193.926025 272.066101,177.242966   C270.509369,173.953796 268.747864,172.731873 265.001740,172.739655   C201.007431,172.872513 137.012802,172.833328 73.018234,172.844727   C71.415291,172.845016 69.812370,172.989517 68.217163,173.066391   C68.217163,192.349579 68.217163,211.247787 68.217163,230.746231   C92.409813,230.746231 116.300186,230.746231 140.076172,230.746231   C140.076172,241.736771 140.076172,252.118668 140.076172,262.977661   C96.406853,262.977661 53.160103,262.977661 9.863628,262.977661   C9.863628,282.212952 9.863628,300.960510 9.863628,320.165009   C61.922539,320.165009 113.711258,320.165009 166.499969,320.164978  M1126.985229,346.500000   C1126.985229,261.105713 1126.985229,175.711426 1126.985229,90.393440   C1102.895020,90.393440 1079.369507,90.393440 1055.882812,90.393440   C1055.882812,193.358994 1055.882812,295.931580 1055.882812,398.698639   C1079.624023,398.698639 1103.164795,398.698639 1126.985229,398.698639   C1126.985229,381.432892 1126.985229,364.466431 1126.985229,346.500000  M1377.625244,274.499878   C1377.625244,315.894897 1377.625244,357.289917 1377.625244,398.769470   C1401.698975,398.769470 1425.113403,398.769470 1448.963135,398.769470   C1448.963135,396.757904 1448.962769,394.969635 1448.963379,393.181335   C1448.975342,358.199158 1448.809570,323.215302 1449.145020,288.236237   C1449.214355,281.008423 1450.274414,273.530304 1452.391602,266.632141   C1458.036011,248.243210 1472.953735,241.794098 1490.304810,240.168289   C1500.648926,239.199051 1511.157959,239.990646 1521.752319,239.990646   C1521.752319,213.781036 1521.752319,188.877060 1521.752319,163.708710   C1490.266602,164.008209 1467.251099,179.177170 1448.813477,204.781586   C1448.813477,191.016891 1448.813477,178.739502 1448.813477,166.296967   C1424.979980,166.296967 1401.427979,166.296967 1377.625122,166.296967   C1377.625122,202.228775 1377.625122,237.864319 1377.625244,274.499878  M2078.736328,385.488556   C2078.736328,312.402435 2078.736328,239.316345 2078.736328,166.399536   C2054.489990,166.399536 2030.931274,166.399536 2007.441772,166.399536   C2007.441772,244.058060 2007.441772,321.313293 2007.441772,398.693695   C2031.255493,398.693695 2054.807373,398.693695 2078.736084,398.693695   C2078.736084,394.424500 2078.736084,390.453918 2078.736328,385.488556  M2084.963867,108.138283   C2085.810059,97.845924 2083.922607,88.359688 2077.322754,80.026138   C2064.646484,64.020515 2042.662109,61.534893 2026.470703,67.411713   C2002.655518,76.055748 1993.057251,103.373138 2006.499512,123.646851   C2014.216919,135.286224 2025.773560,140.548798 2039.393799,141.642944   C2060.212158,143.315369 2081.597168,131.448380 2084.963867,108.138283  M175.451065,93.047211   C160.307724,88.361092 144.909241,85.342560 128.668427,85.701866   C128.668427,104.818100 128.668427,123.703339 128.668427,142.634216   C168.861038,142.634216 208.819031,142.634216 249.484802,142.634216   C229.145111,119.184235 204.950317,102.863258 175.451065,93.047211  z"></path><path fill="#464444" opacity="1.000000" stroke="none" d=" M1.000000,352.468658   C2.972225,352.152008 4.944412,352.436401 6.916679,352.436951   C85.698624,352.459351 164.480576,352.456085 243.262527,352.456085   C245.037247,352.456085 246.811951,352.456055 248.586670,352.456055   C248.898209,352.963593 249.209747,353.471161 249.521301,353.978699   C240.973846,361.703339 232.963699,370.145782 223.779861,377.020294   C194.251617,399.123505 161.007233,410.394501 123.856552,410.109192   C83.218834,409.797058 42.576885,410.035645 1.468390,410.017090   C1.000000,390.979095 1.000000,371.958221 1.000000,352.468658  z"></path><path fill="#454343" opacity="1.000000" stroke="none" d=" M660.764404,342.509644   C674.804932,345.531708 688.116089,345.278870 699.697327,336.425140   C703.681091,333.379547 706.381165,328.694031 709.889404,324.966339   C711.165649,323.610260 713.079773,321.981415 714.715210,321.967896   C738.046387,321.774872 761.379578,321.836029 784.712341,321.847290   C785.363220,321.847595 786.014099,321.973663 787.115479,322.087769   C784.305298,334.377991 779.200073,345.433563 772.070068,355.487885   C750.717590,385.597961 720.861023,399.873444 684.575134,402.063599   C663.811340,403.316864 643.700989,400.723816 624.608276,392.119934   C596.602417,379.499542 577.102905,358.711975 566.990295,329.777832   C556.028503,298.414124 555.981201,266.627716 566.964783,235.254349   C578.408325,202.567001 600.690308,180.020721 633.851929,169.612885   C669.581604,158.399063 704.874939,159.661514 738.359802,177.901733   C763.959473,191.846649 779.813538,213.775238 787.962646,241.519882   C788.591125,243.659622 789.197021,245.806000 790.203491,247.891342   C794.401001,231.839249 800.404175,216.801498 810.087219,203.467392   C830.293396,175.642410 857.891418,162.540588 892.061340,162.923294   C916.497620,163.196991 937.620789,171.403976 954.413757,189.587372   C956.646790,192.005203 958.573853,194.705444 961.368774,198.176758   C961.368774,186.998672 961.368774,176.836716 961.368774,166.339752   C985.464905,166.339752 1009.014709,166.339752 1032.788086,166.339752   C1032.788086,243.709656 1032.788086,320.987427 1032.788086,398.632965   C1009.337097,398.632965 985.796997,398.632965 961.721680,398.632965   C961.721680,388.386078 961.721680,378.174072 961.721680,366.540802   C958.647522,370.216675 956.593811,372.904724 954.304199,375.374084   C932.856018,398.505981 905.738953,405.141174 875.577271,401.410004   C833.326355,396.183289 803.043396,363.807709 792.093994,322.289764   C790.193665,315.084442 789.100220,307.666351 787.582153,300.086914   C735.301270,300.086914 682.882996,300.086914 630.463806,300.086914   C630.539246,320.094635 642.167236,336.431580 660.764404,342.509644  M957.059448,256.545349   C948.946960,238.127182 935.161072,226.905746 914.929993,225.262711   C895.064392,223.649368 878.917175,231.366287 868.320862,248.385773   C857.944092,265.052582 857.750488,283.526703 862.206177,301.972412   C867.174255,322.539062 884.305786,337.350372 904.518066,339.730896   C925.735352,342.229767 945.445618,332.227814 954.917419,313.043701   C963.823486,295.005402 963.654663,276.175903 957.059448,256.545349  M631.968079,253.617981   C631.579834,255.631363 631.191589,257.644745 630.788940,259.732849   C660.789856,259.732849 690.221558,259.732849 719.639709,259.732849   C720.120422,248.797775 715.190552,237.929642 707.545410,231.112717   C686.694519,212.520721 642.007935,215.798233 631.968079,253.617981  z"></path><path fill="#454343" opacity="1.000000" stroke="none" d=" M2338.161865,247.320572   C2334.076416,255.981201 2332.958984,264.814484 2332.968994,273.909332   C2333.012939,313.570312 2332.987793,353.231354 2332.987549,392.892395   C2332.987549,394.709473 2332.987549,396.526550 2332.987549,398.670013   C2309.376221,398.670013 2285.983154,398.670013 2262.000000,398.670013   C2262.000000,396.960876 2262.000000,395.193298 2262.000000,393.425720   C2262.000000,353.598053 2262.113281,313.769714 2261.887695,273.943329   C2261.850098,267.356781 2261.149170,260.545166 2259.345947,254.240341   C2253.946533,235.360794 2238.044434,225.056519 2216.465820,225.610565   C2189.660400,226.298828 2173.335449,241.769897 2172.956543,268.612000   C2172.372803,309.931061 2172.723389,351.263306 2172.677979,392.589966   C2172.675781,394.552948 2172.677734,396.515930 2172.677734,398.737061   C2148.794189,398.737061 2125.357910,398.737061 2101.534180,398.737061   C2101.534180,321.445465 2101.534180,244.070862 2101.534180,166.347229   C2124.977783,166.347229 2148.535400,166.347229 2172.564453,166.347229   C2172.564453,175.413803 2172.564453,184.492752 2172.564453,195.074814   C2193.444580,170.696625 2219.240967,161.586853 2249.378418,164.033279   C2279.660156,166.491379 2303.542969,179.896210 2320.444580,207.642273   C2321.117432,206.160217 2321.388428,205.170837 2321.948242,204.387970   C2337.588135,182.513214 2358.365234,168.168411 2385.159668,164.698364   C2419.615723,160.236053 2455.822754,169.378754 2477.443359,202.350037   C2487.390869,217.519867 2492.555908,234.475479 2492.769531,252.292587   C2493.352539,300.940887 2492.969971,349.600739 2492.969971,398.628662   C2469.698975,398.628662 2446.307617,398.628662 2422.285400,398.628662   C2422.285400,396.932617 2422.285156,395.158051 2422.285156,393.383484   C2422.285156,354.055756 2422.422363,314.727081 2422.163086,275.401062   C2422.114258,267.992950 2421.478760,260.300964 2419.387939,253.252014   C2414.569580,237.009323 2400.836670,227.118774 2383.770020,225.896942   C2364.671143,224.529602 2348.348145,228.913147 2338.161865,247.320572  z"></path><path fill="#454343" opacity="1.000000" stroke="none" d=" M550.811035,364.000061   C550.810974,375.796661 550.810974,387.093262 550.810974,398.693909   C526.898254,398.693909 503.348816,398.693909 479.230103,398.693909   C479.230103,388.240997 479.230103,377.892242 479.230103,368.549805   C471.979950,375.104584 465.156830,382.668549 457.019562,388.350433   C437.905609,401.696930 416.005035,404.456116 393.502167,401.379333   C355.307770,396.157043 329.549713,373.694214 315.691162,338.967896   C299.079041,297.341675 299.662201,255.125534 320.908295,214.906357   C339.330688,180.032471 369.380371,162.889313 408.818359,162.958038   C432.929871,163.000061 454.111908,171.047562 471.332245,188.359970   C473.884186,190.925552 476.023193,193.901901 478.986206,197.445145   C478.986206,161.335876 478.986206,126.031799 478.986206,90.364609   C503.093719,90.364609 526.639771,90.364609 550.811096,90.364609   C550.811096,181.376480 550.811096,272.438263 550.811035,364.000061  M377.571991,286.002197   C378.070923,290.296631 378.307526,294.640991 379.113281,298.877075   C383.047211,319.558350 400.041473,336.449158 419.603912,339.326202   C442.442749,342.685120 462.517700,332.956909 472.648315,313.144226   C480.080688,298.608551 480.714050,283.021088 477.869965,267.307312   C470.835480,228.440918 425.792877,211.565887 396.143646,236.607681   C381.094025,249.318604 377.011017,266.365173 377.571991,286.002197  z"></path><path fill="#444242" opacity="1.000000" stroke="none" d=" M1666.146606,228.719391   C1654.844238,222.783615 1643.168579,221.960709 1631.336182,224.539108   C1612.990723,228.536743 1600.628418,243.663055 1598.991211,263.501801   C1598.594238,268.311249 1598.385986,273.150116 1598.380005,277.975800   C1598.331543,316.304047 1598.353027,354.632355 1598.353027,392.960663   C1598.353027,394.778870 1598.353027,396.597046 1598.353027,398.705780   C1574.652954,398.705780 1551.213379,398.705780 1527.400146,398.705780   C1527.400146,296.142090 1527.400146,193.423965 1527.400146,90.352646   C1550.757935,90.352646 1574.302246,90.352646 1598.320801,90.352646   C1598.320801,125.610374 1598.320801,160.803314 1598.320801,196.236496   C1603.835083,191.051239 1608.602051,185.730576 1614.180542,181.472992   C1634.776367,165.753494 1658.377930,161.586990 1683.605835,164.469223   C1727.017944,169.428986 1754.121948,203.395630 1757.924927,247.344101   C1758.613403,255.299210 1758.808960,263.317017 1758.826172,271.306763   C1758.913574,311.801239 1758.866577,352.296021 1758.866821,392.790680   C1758.866943,394.609192 1758.866943,396.427734 1758.866943,398.622620   C1735.274780,398.622620 1711.892456,398.622620 1687.898193,398.622620   C1687.898193,396.951355 1687.898193,395.188477 1687.898193,393.425598   C1687.898071,353.930786 1688.103638,314.434052 1687.729248,274.942780   C1687.651611,266.753601 1686.147217,258.388000 1683.996460,250.457352   C1681.426514,240.981293 1675.019165,233.894516 1666.146606,228.719391  z"></path><path fill="#454343" opacity="1.000000" stroke="none" d=" M1928.975098,393.990295   C1881.695312,409.260254 1837.840942,405.737488 1799.883667,371.444550   C1779.228271,352.783264 1769.289185,328.244659 1766.165039,300.950378   C1763.320923,276.100250 1765.361328,251.679596 1775.502808,228.509949   C1792.556274,189.548615 1823.384277,169.233475 1864.795898,164.011353   C1888.632324,161.005508 1912.068604,162.960480 1934.273560,172.828217   C1970.197876,188.792679 1990.242188,217.062164 1996.968872,255.293030   C1999.526245,269.828278 1999.421631,284.441711 1997.523804,299.690765   C1943.851318,299.690765 1890.152954,299.690765 1836.100952,299.690765   C1837.673584,318.256042 1844.344116,333.077484 1861.765015,340.429382   C1877.085571,346.894928 1892.371216,346.108093 1906.196533,336.040192   C1909.719604,333.474670 1912.649292,329.734680 1914.968262,325.987610   C1916.867554,322.919159 1918.671631,321.705231 1922.337524,321.737976   C1944.161621,321.933014 1965.988159,321.834381 1987.813965,321.834381   C1989.457642,321.834381 1991.101318,321.834381 1993.449585,321.834381   C1983.434204,356.564117 1962.332397,380.481903 1928.975098,393.990295  M1864.500000,260.000732   C1884.922119,260.000732 1905.344116,260.000732 1925.757446,260.000732   C1925.848755,236.651794 1908.027344,220.402771 1882.602051,220.018585   C1858.294800,219.651291 1837.961182,237.357147 1837.076050,260.000732   C1845.890259,260.000732 1854.695068,260.000732 1864.500000,260.000732  z"></path><path fill="#454343" opacity="1.000000" stroke="none" d=" M1184.753418,383.278412   C1156.727417,364.235168 1141.698608,337.594452 1137.057617,304.870026   C1133.323242,278.538574 1135.139648,252.633118 1146.006226,228.007889   C1162.836182,189.869125 1193.141113,169.687500 1233.656494,164.144272   C1257.081421,160.939316 1280.267822,162.621246 1302.336792,171.884140   C1338.959229,187.255447 1359.798706,215.312088 1367.009521,253.918213   C1369.814331,268.934784 1369.689209,284.065826 1367.792725,299.715942   C1314.193726,299.715942 1260.623413,299.715942 1207.093018,299.715942   C1205.461426,322.529968 1224.499634,343.460083 1246.769531,344.096771   C1257.858765,344.413757 1268.527222,343.180542 1277.193359,335.541870   C1280.620117,332.521332 1283.014038,328.356873 1286.140381,324.954102   C1287.400879,323.582062 1289.356567,321.980103 1291.008057,321.966522   C1314.336182,321.774841 1337.666382,321.836792 1360.996094,321.851532   C1361.645752,321.851959 1362.295532,322.010162 1363.345459,322.146881   C1360.535645,334.622406 1355.281128,345.824921 1347.984863,356.004517   C1326.717529,385.676056 1297.102295,399.765747 1261.224854,402.051178   C1237.827881,403.541565 1215.445190,399.951019 1194.477905,389.088715   C1191.236816,387.409576 1188.184326,385.366333 1184.753418,383.278412  M1288.484497,236.088287   C1274.240234,220.018417 1256.351807,216.868347 1236.720581,222.660263   C1218.657837,227.989349 1210.069946,241.735245 1206.878784,259.746277   C1236.725220,259.746277 1266.263184,259.746277 1296.068115,259.746277   C1296.024170,251.123428 1293.903198,243.460693 1288.484497,236.088287  z"></path><path fill="#454343" opacity="1.000000" stroke="none" d=" M165.999969,320.164978   C113.711258,320.165009 61.922539,320.165009 9.863628,320.165009   C9.863628,300.960510 9.863628,282.212952 9.863628,262.977661   C53.160103,262.977661 96.406853,262.977661 140.076172,262.977661   C140.076172,252.118668 140.076172,241.736771 140.076172,230.746231   C116.300186,230.746231 92.409813,230.746231 68.217163,230.746231   C68.217163,211.247787 68.217163,192.349579 68.217163,173.066391   C69.812370,172.989517 71.415291,172.845016 73.018234,172.844727   C137.012802,172.833328 201.007431,172.872513 265.001740,172.739655   C268.747864,172.731873 270.509369,173.953796 272.066101,177.242966   C279.962128,193.926025 284.940826,211.381454 287.095886,230.341980   C257.417145,230.341980 228.049530,230.341980 198.394867,230.341980   C198.394867,241.357620 198.394867,251.775864 198.394867,262.750122   C227.867844,262.750122 257.257843,262.750122 288.056335,262.750122   C285.947388,272.897430 284.483063,282.383942 281.917755,291.562805   C279.602203,299.848083 275.985168,307.762909 273.140320,315.910309   C271.969238,319.264160 270.045288,320.268066 266.490631,320.252380   C233.160934,320.105103 199.830322,320.164978 165.999969,320.164978  z"></path><path fill="#444242" opacity="1.000000" stroke="none" d=" M1126.985229,347.000000   C1126.985229,364.466431 1126.985229,381.432892 1126.985229,398.698639   C1103.164795,398.698639 1079.624023,398.698639 1055.882812,398.698639   C1055.882812,295.931580 1055.882812,193.358994 1055.882812,90.393440   C1079.369507,90.393440 1102.895020,90.393440 1126.985229,90.393440   C1126.985229,175.711426 1126.985229,261.105713 1126.985229,347.000000  z"></path><path fill="#444242" opacity="1.000000" stroke="none" d=" M1377.625244,273.999878   C1377.625122,237.864319 1377.625122,202.228775 1377.625122,166.296967   C1401.427979,166.296967 1424.979980,166.296967 1448.813477,166.296967   C1448.813477,178.739502 1448.813477,191.016891 1448.813477,204.781586   C1467.251099,179.177170 1490.266602,164.008209 1521.752319,163.708710   C1521.752319,188.877060 1521.752319,213.781036 1521.752319,239.990646   C1511.157959,239.990646 1500.648926,239.199051 1490.304810,240.168289   C1472.953735,241.794098 1458.036011,248.243210 1452.391602,266.632141   C1450.274414,273.530304 1449.214355,281.008423 1449.145020,288.236237   C1448.809570,323.215302 1448.975342,358.199158 1448.963379,393.181335   C1448.962769,394.969635 1448.963135,396.757904 1448.963135,398.769470   C1425.113403,398.769470 1401.698975,398.769470 1377.625244,398.769470   C1377.625244,357.289917 1377.625244,315.894897 1377.625244,273.999878  z"></path><path fill="#464444" opacity="1.000000" stroke="none" d=" M2078.736328,385.985962   C2078.736084,390.453918 2078.736084,394.424500 2078.736084,398.693695   C2054.807373,398.693695 2031.255493,398.693695 2007.441772,398.693695   C2007.441772,321.313293 2007.441772,244.058060 2007.441772,166.399536   C2030.931274,166.399536 2054.489990,166.399536 2078.736328,166.399536   C2078.736328,239.316345 2078.736328,312.402435 2078.736328,385.985962  z"></path><path fill="#454343" opacity="1.000000" stroke="none" d=" M2084.934570,108.588432   C2081.597168,131.448380 2060.212158,143.315369 2039.393799,141.642944   C2025.773560,140.548798 2014.216919,135.286224 2006.499512,123.646851   C1993.057251,103.373138 2002.655518,76.055748 2026.470703,67.411713   C2042.662109,61.534893 2064.646484,64.020515 2077.322754,80.026138   C2083.922607,88.359688 2085.810059,97.845924 2084.934570,108.588432  z"></path><path fill="#464444" opacity="1.000000" stroke="none" d=" M175.832947,93.156799   C204.950317,102.863258 229.145111,119.184235 249.484802,142.634216   C208.819031,142.634216 168.861038,142.634216 128.668427,142.634216   C128.668427,123.703339 128.668427,104.818100 128.668427,85.701866   C144.909241,85.342560 160.307724,88.361092 175.832947,93.156799  z"></path><path fill="#FEFEFE" opacity="1.000000" stroke="none" d=" M957.190002,256.911377   C963.654663,276.175903 963.823486,295.005402 954.917419,313.043701   C945.445618,332.227814 925.735352,342.229767 904.518066,339.730896   C884.305786,337.350372 867.174255,322.539062 862.206177,301.972412   C857.750488,283.526703 857.944092,265.052582 868.320862,248.385773   C878.917175,231.366287 895.064392,223.649368 914.929993,225.262711   C935.161072,226.905746 948.946960,238.127182 957.190002,256.911377  z"></path><path fill="#FEFEFE" opacity="1.000000" stroke="none" d=" M632.025513,253.209167   C642.007935,215.798233 686.694519,212.520721 707.545410,231.112717   C715.190552,237.929642 720.120422,248.797775 719.639709,259.732849   C690.221558,259.732849 660.789856,259.732849 630.788940,259.732849   C631.191589,257.644745 631.579834,255.631363 632.025513,253.209167  z"></path><path fill="#FEFEFE" opacity="1.000000" stroke="none" d=" M377.538025,285.556671   C377.011017,266.365173 381.094025,249.318604 396.143646,236.607681   C425.792877,211.565887 470.835480,228.440918 477.869965,267.307312   C480.714050,283.021088 480.080688,298.608551 472.648315,313.144226   C462.517700,332.956909 442.442749,342.685120 419.603912,339.326202   C400.041473,336.449158 383.047211,319.558350 379.113281,298.877075   C378.307526,294.640991 378.070923,290.296631 377.538025,285.556671  z"></path><path fill="#FEFEFE" opacity="1.000000" stroke="none" d=" M1864.000000,260.000732   C1854.695068,260.000732 1845.890259,260.000732 1837.076050,260.000732   C1837.961182,237.357147 1858.294800,219.651291 1882.602051,220.018585   C1908.027344,220.402771 1925.848755,236.651794 1925.757446,260.000732   C1905.344116,260.000732 1884.922119,260.000732 1864.000000,260.000732  z"></path><path fill="#FEFEFE" opacity="1.000000" stroke="none" d=" M1288.706909,236.372330   C1293.903198,243.460693 1296.024170,251.123428 1296.068115,259.746277   C1266.263184,259.746277 1236.725220,259.746277 1206.878784,259.746277   C1210.069946,241.735245 1218.657837,227.989349 1236.720581,222.660263   C1256.351807,216.868347 1274.240234,220.018417 1288.706909,236.372330  z"></path></svg>